<svg xmlns="http://www.w3.org/2000/svg" width="54.376" height="75.844" viewBox="0 0 54.376 75.844">
  <defs>
    <style>
      .cls-1 {
        fill: #ff695a;
        fill-rule: evenodd;
      }
    </style>
  </defs>
  <path id="стрелка" class="cls-1" d="M706.062,414.516c-0.2-.027-0.294.294-0.092,0.351,4.713,1.324,6.241,10.71,7.047,14.769A51.037,51.037,0,0,1,714,442.291a39.611,39.611,0,0,1-7.448,21.5c-10.379,14.018-26.542,14.322-42.338,13.15-0.351-2.82,9.336-8.254,11.52-10.052a0.828,0.828,0,0,0-1-1.317c-4.457,3.152-8.73,6.584-13.068,9.9a0.9,0.9,0,0,0-.168,1.256l2.03,2.076a89.078,89.078,0,0,0,11.118,11.363c0.754,0.644,1.967-.525,1.255-1.254l-5.843-5.974c-0.463-.474-1.508-1.33-2.588-2.272-0.53-.592-1.044-1.2-1.56-1.81,8.169,0.592,16.581.97,24.5-1.427a34.785,34.785,0,0,0,20.1-16.564,43.17,43.17,0,0,0,4.911-25.845C714.809,429.4,713.087,415.476,706.062,414.516Z" transform="translate(-661.312 -414.5)"/>
</svg>
