<svg xmlns="http://www.w3.org/2000/svg" width="16" height="30" viewBox="0 0 16 30">
  <defs>
    <style>
      .cls-1 {
        fill: #ff695a;
        fill-rule: evenodd;
      }
    </style>
  </defs>
  <path id="иконка" class="cls-1" d="M714.857,379h-9.714A3.189,3.189,0,0,0,702,382.223v23.554A3.189,3.189,0,0,0,705.143,409h9.714A3.189,3.189,0,0,0,718,405.777V382.223A3.186,3.186,0,0,0,714.857,379Zm-6.04,1.324h2.412a0.593,0.593,0,0,1,0,1.172h-2.412A0.593,0.593,0,0,1,708.817,380.324Zm-2.28-.088a0.671,0.671,0,1,1-.657.668A0.657,0.657,0,0,1,706.537,380.236Zm3.486,26.719a1.078,1.078,0,1,1,1.051-1.078A1.062,1.062,0,0,1,710.023,406.955Zm6.148-2.789H703.834V382.9h12.337v21.264Z" transform="translate(-702 -379)"/>
</svg>
