<svg xmlns="http://www.w3.org/2000/svg" width="19.97" height="20" viewBox="0 0 19.97 20">
  <defs>
    <style>
      .cls-1 {
        fill: #ff695a;
        fill-rule: evenodd;
      }
    </style>
  </defs>
  <path id="иконка" class="cls-1" d="M1057.6,97.1a6.184,6.184,0,0,1,7.2-3.8,17.644,17.644,0,0,1,11.7-5.3,0.473,0.473,0,0,1,.5.5,18,18,0,0,1-5.2,11.7,6.344,6.344,0,0,1-3.8,7.2,6.966,6.966,0,0,0,.2-4.3,10.93,10.93,0,0,1-1.5.8,0.469,0.469,0,0,1-.6-0.1l-5-5a0.447,0.447,0,0,1,0-.5,6.4,6.4,0,0,1,.8-1.4A6.965,6.965,0,0,0,1057.6,97.1Zm11-.7a1.979,1.979,0,1,0,0-2.8A1.933,1.933,0,0,0,1068.6,96.4Zm-11.3,6,2.1-2.1a0.99,0.99,0,0,1,1.4,1.4l-2.1,2.1A0.99,0.99,0,0,1,1057.3,102.4Zm3.9,3.9,2.1-2.1a0.99,0.99,0,0,1,1.4,1.4l-2.1,2.1A0.99,0.99,0,0,1,1061.2,106.3Zm-2.7-1.1,2.9-2.9a0.99,0.99,0,0,1,1.4,1.4l-2.9,2.9A0.99,0.99,0,0,1,1058.5,105.2Z" transform="translate(-1057.03 -88)"/>
</svg>
