<svg width="109" height="69" viewBox="0 0 109 69" fill="none" xmlns="http://www.w3.org/2000/svg">
<path d="M8.232 58.936L7.44345 59.5511L7.45036 59.5597L8.232 58.936ZM8.232 9.88L7.44732 9.2601L7.44651 9.26112L8.232 9.88ZM53.64 9.88L52.8515 10.4951L52.8584 10.5037L53.64 9.88ZM53.64 58.936L52.8553 58.3161L52.8545 58.3171L53.64 58.936ZM9.0205 58.321C4.19472 52.1341 1.744 44.1737 1.744 34.36H-0.256C-0.256 44.5143 2.28528 52.9379 7.4435 59.551L9.0205 58.321ZM1.744 34.36C1.744 24.5458 4.19487 16.6199 9.01749 10.4989L7.44651 9.26112C2.28513 15.8121 -0.256 24.2062 -0.256 34.36H1.744ZM9.01668 10.4999C13.838 4.39694 21.0971 1.27999 30.984 1.27999V-0.720005C20.6469 -0.720005 12.738 2.56305 7.44732 9.2601L9.01668 10.4999ZM30.984 1.27999C40.8714 1.27999 48.095 4.39699 52.8515 10.495L54.4285 9.26497C49.201 2.563 41.3206 -0.720005 30.984 -0.720005V1.27999ZM52.8584 10.5037C57.7427 16.6245 60.224 24.5487 60.224 34.36H62.224C62.224 24.2033 59.6493 15.8074 54.4216 9.25627L52.8584 10.5037ZM60.224 34.36C60.224 44.1709 57.7428 52.1294 52.8553 58.3161L54.4247 59.5559C59.6492 52.9426 62.224 44.5171 62.224 34.36H60.224ZM52.8545 58.3171C48.0993 64.3526 40.875 67.44 30.984 67.44V69.44C41.317 69.44 49.1967 66.1914 54.4255 59.5549L52.8545 58.3171ZM30.984 67.44C21.0936 67.44 13.8337 64.3526 9.01364 58.3123L7.45036 59.5597C12.7423 66.1914 20.6504 69.44 30.984 69.44V67.44ZM30.984 54.08C35.4353 54.08 38.8879 52.3869 41.1761 48.9547C43.4165 45.5941 44.464 40.6795 44.464 34.36H42.464C42.464 40.5205 41.4315 44.9659 39.512 47.8453C37.6401 50.6531 34.8527 52.08 30.984 52.08V54.08ZM44.464 34.36C44.464 28.0405 43.4165 23.1259 41.1761 19.7653C38.8879 16.3331 35.4353 14.64 30.984 14.64V16.64C34.8527 16.64 37.6401 18.0669 39.512 20.8747C41.4315 23.7541 42.464 28.1995 42.464 34.36H44.464ZM30.984 14.64C26.5327 14.64 23.0801 16.3331 20.792 19.7653C18.5515 23.1259 17.504 28.0405 17.504 34.36H19.504C19.504 28.1995 20.5365 23.7541 22.4561 20.8747C24.3279 18.0669 27.1153 16.64 30.984 16.64V14.64ZM17.504 34.36C17.504 40.6795 18.5515 45.5941 20.792 48.9547C23.0801 52.3869 26.5327 54.08 30.984 54.08V52.08C27.1153 52.08 24.3279 50.6531 22.4561 47.8453C20.5365 44.9659 19.504 40.5205 19.504 34.36H17.504ZM85.6087 1.72V0.719999H85.4243L85.2521 0.785781L85.6087 1.72ZM98.5688 1.72H99.5688V0.719999H98.5688V1.72ZM98.5688 52.12H97.5688V53.12H98.5688V52.12ZM108.745 52.12H109.745V51.12H108.745V52.12ZM108.745 67V68H109.745V67H108.745ZM69.7688 67H68.7688V68H69.7688V67ZM69.7688 52.12V51.12H68.7688V52.12H69.7688ZM81.2887 52.12V53.12H82.2887V52.12H81.2887ZM81.2887 19.288H82.2887V17.845L80.9376 18.3517L81.2887 19.288ZM69.7688 23.608H68.7688V25.051L70.1199 24.5443L69.7688 23.608ZM69.7688 7.768L69.412 6.83378L68.7688 7.0794V7.768H69.7688ZM85.6087 2.72H98.5688V0.719999H85.6087V2.72ZM97.5688 1.72V52.12H99.5688V1.72H97.5688ZM98.5688 53.12H108.745V51.12H98.5688V53.12ZM107.745 52.12V67H109.745V52.12H107.745ZM108.745 66H69.7688V68H108.745V66ZM70.7688 67V52.12H68.7688V67H70.7688ZM69.7688 53.12H81.2887V51.12H69.7688V53.12ZM82.2887 52.12V19.288H80.2887V52.12H82.2887ZM80.9376 18.3517L69.4176 22.6717L70.1199 24.5443L81.6399 20.2243L80.9376 18.3517ZM70.7688 23.608V7.768H68.7688V23.608H70.7688ZM70.1255 8.70221L85.9655 2.65422L85.2521 0.785781L69.412 6.83378L70.1255 8.70221Z" fill="#59A71C"/>
</svg>
