<svg width="120" height="69" viewBox="0 0 120 69" fill="none" xmlns="http://www.w3.org/2000/svg">
<path d="M8.232 58.936L7.44345 59.5511L7.45036 59.5597L8.232 58.936ZM8.232 9.88L7.44732 9.2601L7.44651 9.26112L8.232 9.88ZM53.64 9.88L52.8515 10.4951L52.8584 10.5037L53.64 9.88ZM53.64 58.936L52.8553 58.3161L52.8545 58.3171L53.64 58.936ZM9.0205 58.321C4.19472 52.1341 1.744 44.1737 1.744 34.36H-0.256C-0.256 44.5143 2.28528 52.9379 7.4435 59.551L9.0205 58.321ZM1.744 34.36C1.744 24.5458 4.19487 16.6199 9.01749 10.4989L7.44651 9.26112C2.28513 15.8121 -0.256 24.2062 -0.256 34.36H1.744ZM9.01668 10.4999C13.838 4.39694 21.0971 1.27999 30.984 1.27999V-0.720005C20.6469 -0.720005 12.738 2.56305 7.44732 9.2601L9.01668 10.4999ZM30.984 1.27999C40.8714 1.27999 48.095 4.39699 52.8515 10.495L54.4285 9.26497C49.201 2.563 41.3206 -0.720005 30.984 -0.720005V1.27999ZM52.8584 10.5037C57.7427 16.6245 60.224 24.5487 60.224 34.36H62.224C62.224 24.2033 59.6493 15.8074 54.4216 9.25627L52.8584 10.5037ZM60.224 34.36C60.224 44.1709 57.7428 52.1294 52.8553 58.3161L54.4247 59.5559C59.6492 52.9426 62.224 44.5171 62.224 34.36H60.224ZM52.8545 58.3171C48.0993 64.3526 40.875 67.44 30.984 67.44V69.44C41.317 69.44 49.1967 66.1914 54.4255 59.5549L52.8545 58.3171ZM30.984 67.44C21.0936 67.44 13.8337 64.3526 9.01364 58.3123L7.45036 59.5597C12.7423 66.1914 20.6504 69.44 30.984 69.44V67.44ZM30.984 54.08C35.4353 54.08 38.8879 52.3869 41.1761 48.9547C43.4165 45.5941 44.464 40.6795 44.464 34.36H42.464C42.464 40.5205 41.4315 44.9659 39.512 47.8453C37.6401 50.6531 34.8527 52.08 30.984 52.08V54.08ZM44.464 34.36C44.464 28.0405 43.4165 23.1259 41.1761 19.7653C38.8879 16.3331 35.4353 14.64 30.984 14.64V16.64C34.8527 16.64 37.6401 18.0669 39.512 20.8747C41.4315 23.7541 42.464 28.1995 42.464 34.36H44.464ZM30.984 14.64C26.5327 14.64 23.0801 16.3331 20.792 19.7653C18.5515 23.1259 17.504 28.0405 17.504 34.36H19.504C19.504 28.1995 20.5365 23.7541 22.4561 20.8747C24.3279 18.0669 27.1153 16.64 30.984 16.64V14.64ZM17.504 34.36C17.504 40.6795 18.5515 45.5941 20.792 48.9547C23.0801 52.3869 26.5327 54.08 30.984 54.08V52.08C27.1153 52.08 24.3279 50.6531 22.4561 47.8453C20.5365 44.9659 19.504 40.5205 19.504 34.36H17.504ZM70.7288 7.48L70.1512 6.66367L69.7288 6.96255V7.48H70.7288ZM111.721 5.272L111.141 6.08649L111.721 5.272ZM117.289 27.928L118.212 28.3126L117.289 27.928ZM113.065 34.168L113.772 34.8751L113.065 34.168ZM107.689 38.968L108.284 39.7716L108.293 39.7646L108.303 39.7574L107.689 38.968ZM101.449 43.096L101.966 43.9521L101.967 43.9515L101.449 43.096ZM89.8327 50.68L90.5399 51.3871L89.8327 50.68ZM88.9688 52.12H87.9688V53.12H88.9688V52.12ZM119.209 52.12H120.209V51.12H119.209V52.12ZM119.209 67V68H120.209V67H119.209ZM68.6168 67H67.6168V68H68.6168V67ZM72.8408 45.112L73.6728 45.6667L73.678 45.6589L73.683 45.6511L72.8408 45.112ZM77.7367 40.024L78.3614 40.8049L78.3682 40.7995L78.3748 40.794L77.7367 40.024ZM82.7288 36.184L82.2073 35.3307L82.1963 35.3374L82.1855 35.3444L82.7288 36.184ZM88.4888 32.728L89.0002 33.5873L89.0032 33.5855L88.4888 32.728ZM89.9287 31.864L90.4433 32.7215L90.451 32.7168L90.4587 32.712L89.9287 31.864ZM93.1927 30.04L93.6669 30.9205L93.6784 30.9142L93.1927 30.04ZM96.5527 28.12L97.0828 28.968L97.1188 28.9455L97.1528 28.92L96.5527 28.12ZM98.6647 26.392L98.0401 25.6111L98.0268 25.6217L98.014 25.6327L98.6647 26.392ZM100.489 24.088L99.5657 23.7034L99.5516 23.7371L99.5401 23.7718L100.489 24.088ZM98.5688 17.176L98.0141 18.008L98.0339 18.0212L98.0543 18.0335L98.5688 17.176ZM70.7288 23.8H69.7288V25.8596L71.3472 24.5858L70.7288 23.8ZM71.3063 8.29633C77.9118 3.62262 85.4836 1.27999 94.0567 1.27999V-0.720005C85.0939 -0.720005 77.1137 1.73738 70.1512 6.66367L71.3063 8.29633ZM94.0567 1.27999C101.003 1.27999 106.675 2.90533 111.141 6.08649L112.301 4.45751C107.423 0.982667 101.319 -0.720005 94.0567 -0.720005V1.27999ZM111.141 6.08649C115.496 9.189 117.729 13.9402 117.729 20.536H119.729C119.729 13.4358 117.289 8.01099 112.301 4.45751L111.141 6.08649ZM117.729 20.536C117.729 23.0349 117.272 25.3675 116.366 27.5434L118.212 28.3126C119.225 25.8805 119.729 23.2851 119.729 20.536H117.729ZM116.366 27.5434C115.458 29.7206 114.126 31.6924 112.358 33.4609L113.772 34.8751C115.715 32.9316 117.199 30.7433 118.212 28.3126L116.366 27.5434ZM112.358 33.4609C110.525 35.2931 108.764 36.8645 107.075 38.1786L108.303 39.7574C110.069 38.3835 111.892 36.7549 113.772 34.8751L112.358 33.4609ZM107.094 38.1644C105.397 39.4211 103.344 40.7798 100.931 42.2405L101.967 43.9515C104.417 42.4682 106.525 41.0748 108.284 39.7716L107.094 38.1644ZM100.932 42.2399C97.5358 44.2904 94.8604 45.9533 92.9101 47.2267C90.9971 48.4756 89.6935 49.405 89.1256 49.9729L90.5399 51.3871C90.932 50.995 92.0444 50.1804 94.0034 48.9013C95.9251 47.6467 98.5777 45.9976 101.966 43.9521L100.932 42.2399ZM89.1256 49.9729C88.8035 50.295 88.5276 50.6235 88.3273 50.9575C88.1301 51.2861 87.9688 51.6821 87.9688 52.12H89.9688C89.9688 52.1739 89.9514 52.1379 90.0422 51.9865C90.1299 51.8405 90.286 51.641 90.5399 51.3871L89.1256 49.9729ZM88.9688 53.12H119.209V51.12H88.9688V53.12ZM118.209 52.12V67H120.209V52.12H118.209ZM119.209 66H68.6168V68H119.209V66ZM69.6168 67V59.224H67.6168V67H69.6168ZM69.6168 59.224C69.6168 56.4493 70.0481 53.8765 70.9019 51.4979L69.0196 50.8221C68.0814 53.4355 67.6168 56.2387 67.6168 59.224H69.6168ZM70.9019 51.4979C71.7813 49.0481 72.7087 47.1128 73.6728 45.6667L72.0087 44.5573C70.9248 46.1832 69.9322 48.2799 69.0196 50.8221L70.9019 51.4979ZM73.683 45.6511C74.6263 44.1772 76.1678 42.5598 78.3614 40.8049L77.1121 39.2431C74.8257 41.0722 73.1032 42.8468 71.9985 44.5729L73.683 45.6511ZM78.3748 40.794C80.6123 38.9401 82.2374 37.693 83.272 37.0236L82.1855 35.3444C81.0441 36.083 79.3413 37.3959 77.0987 39.254L78.3748 40.794ZM83.2502 37.0373C84.3968 36.3366 86.3124 35.1872 89.0002 33.5873L87.9773 31.8687C85.2891 33.4688 83.3647 34.6234 82.2073 35.3307L83.2502 37.0373ZM89.0032 33.5855C89.6432 33.2015 90.1232 32.9135 90.4433 32.7215L89.4143 31.0065C89.0943 31.1985 88.6143 31.4865 87.9743 31.8705L89.0032 33.5855ZM90.4587 32.712C90.9385 32.4122 91.9972 31.8195 93.6668 30.9205L92.7187 29.1595C91.0603 30.0525 89.943 30.6758 89.3988 31.016L90.4587 32.712ZM93.6784 30.9142C95.4012 29.9571 96.5448 29.3042 97.0828 28.968L96.0228 27.272C95.5367 27.5758 94.4403 28.2029 92.7071 29.1658L93.6784 30.9142ZM97.1528 28.92C97.6909 28.5164 98.4143 27.9237 99.3155 27.1513L98.014 25.6327C97.1232 26.3963 96.4386 26.9556 95.9528 27.32L97.1528 28.92ZM99.2894 27.1729C100.327 26.3426 101.097 25.4269 101.437 24.4042L99.5401 23.7718C99.369 24.2851 98.9222 24.9054 98.0401 25.6111L99.2894 27.1729ZM101.412 24.4726C101.79 23.5655 101.969 22.5679 101.969 21.496H99.9688C99.9688 22.3441 99.8277 23.0745 99.5657 23.7034L101.412 24.4726ZM101.969 21.496C101.969 19.2372 100.995 17.4656 99.0833 16.3185L98.0543 18.0335C99.3425 18.8064 99.9688 19.9148 99.9688 21.496H101.969ZM99.1235 16.3439C97.371 15.1756 95.1084 14.64 92.4248 14.64V16.64C94.8611 16.64 96.6945 17.1284 98.0141 18.008L99.1235 16.3439ZM92.4248 14.64C84.6126 14.64 77.1683 17.4593 70.1103 23.0142L71.3472 24.5858C78.1132 19.2607 85.1329 16.64 92.4248 16.64V14.64ZM71.7288 23.8V7.48H69.7288V23.8H71.7288Z" fill="#59A71C"/>
</svg>
