<svg width="120" height="69" viewBox="0 0 120 69" fill="none" xmlns="http://www.w3.org/2000/svg">
<path d="M8.232 58.936L7.44345 59.5511L7.45036 59.5597L8.232 58.936ZM8.232 9.88L7.44732 9.2601L7.44651 9.26112L8.232 9.88ZM53.64 9.88L52.8515 10.4951L52.8584 10.5037L53.64 9.88ZM53.64 58.936L52.8553 58.3161L52.8545 58.3171L53.64 58.936ZM9.0205 58.321C4.19472 52.1341 1.744 44.1737 1.744 34.36H-0.256C-0.256 44.5143 2.28528 52.9379 7.4435 59.551L9.0205 58.321ZM1.744 34.36C1.744 24.5458 4.19487 16.6199 9.01749 10.4989L7.44651 9.26112C2.28513 15.8121 -0.256 24.2062 -0.256 34.36H1.744ZM9.01668 10.4999C13.838 4.39694 21.0971 1.27999 30.984 1.27999V-0.720005C20.6469 -0.720005 12.738 2.56305 7.44732 9.2601L9.01668 10.4999ZM30.984 1.27999C40.8714 1.27999 48.095 4.39699 52.8515 10.495L54.4285 9.26497C49.201 2.563 41.3206 -0.720005 30.984 -0.720005V1.27999ZM52.8584 10.5037C57.7427 16.6245 60.224 24.5487 60.224 34.36H62.224C62.224 24.2033 59.6493 15.8074 54.4216 9.25627L52.8584 10.5037ZM60.224 34.36C60.224 44.1709 57.7428 52.1294 52.8553 58.3161L54.4247 59.5559C59.6492 52.9426 62.224 44.5171 62.224 34.36H60.224ZM52.8545 58.3171C48.0993 64.3526 40.875 67.44 30.984 67.44V69.44C41.317 69.44 49.1967 66.1914 54.4255 59.5549L52.8545 58.3171ZM30.984 67.44C21.0936 67.44 13.8337 64.3526 9.01364 58.3123L7.45036 59.5597C12.7423 66.1914 20.6504 69.44 30.984 69.44V67.44ZM30.984 54.08C35.4353 54.08 38.8879 52.3869 41.1761 48.9547C43.4165 45.5941 44.464 40.6795 44.464 34.36H42.464C42.464 40.5205 41.4315 44.9659 39.512 47.8453C37.6401 50.6531 34.8527 52.08 30.984 52.08V54.08ZM44.464 34.36C44.464 28.0405 43.4165 23.1259 41.1761 19.7653C38.8879 16.3331 35.4353 14.64 30.984 14.64V16.64C34.8527 16.64 37.6401 18.0669 39.512 20.8747C41.4315 23.7541 42.464 28.1995 42.464 34.36H44.464ZM30.984 14.64C26.5327 14.64 23.0801 16.3331 20.792 19.7653C18.5515 23.1259 17.504 28.0405 17.504 34.36H19.504C19.504 28.1995 20.5365 23.7541 22.4561 20.8747C24.3279 18.0669 27.1153 16.64 30.984 16.64V14.64ZM17.504 34.36C17.504 40.6795 18.5515 45.5941 20.792 48.9547C23.0801 52.3869 26.5327 54.08 30.984 54.08V52.08C27.1153 52.08 24.3279 50.6531 22.4561 47.8453C20.5365 44.9659 19.504 40.5205 19.504 34.36H17.504ZM106.537 32.248L106.212 31.3021L103.343 32.2857L106.235 33.2013L106.537 32.248ZM115.753 38.296L114.979 38.9292L114.987 38.9388L114.995 38.9482L115.753 38.296ZM117.001 58.168L117.858 58.6825L117.001 58.168ZM110.665 64.216L111.138 65.0972L111.145 65.0931L110.665 64.216ZM102.025 67.384L101.806 66.4083L102.025 67.384ZM69.3848 64.024H68.3848V64.7032L69.0161 64.9536L69.3848 64.024ZM69.3848 47.704L69.8827 46.8368L68.3848 45.9766V47.704H69.3848ZM90.5048 53.08L90.5216 54.0799L90.5233 54.0798L90.5048 53.08ZM99.0488 51.352L99.4857 52.2515L99.4959 52.2465L99.5061 52.2413L99.0488 51.352ZM82.3447 40.888L81.3448 40.8815L81.3383 41.888H82.3447V40.888ZM82.4408 26.008L82.4514 25.0081L81.4473 24.9974L81.4408 26.0015L82.4408 26.008ZM91.4648 26.104L91.4877 25.1042L91.4754 25.1041L91.4648 26.104ZM70.5368 21.976H69.5368V23.8551L71.0954 22.8054L70.5368 21.976ZM70.5368 5.65599L70.0406 4.78775L69.5368 5.07567V5.65599H70.5368ZM109.801 4.888L109.235 5.71273L109.242 5.71734L109.249 5.72185L109.801 4.888ZM115.617 18.424C115.617 21.7141 114.819 24.3756 113.289 26.4748C111.756 28.5763 109.426 30.2001 106.212 31.3021L106.861 33.1939C110.367 31.9919 113.077 30.1597 114.905 27.6532C116.734 25.1444 117.617 22.0459 117.617 18.424H115.617ZM106.235 33.2013C109.91 34.3652 112.811 36.2794 114.979 38.9292L116.527 37.6628C114.087 34.6806 110.843 32.5628 106.839 31.2947L106.235 33.2013ZM114.995 38.9482C117.172 41.4791 118.305 44.8453 118.305 49.144H120.305C120.305 44.4827 119.069 40.6169 116.511 37.6438L114.995 38.9482ZM118.305 49.144C118.305 52.4478 117.572 55.272 116.143 57.6535L117.858 58.6825C119.501 55.944 120.305 52.7522 120.305 49.144H118.305ZM116.143 57.6535C114.701 60.0571 112.721 61.9498 110.184 63.3389L111.145 65.0931C113.984 63.5382 116.228 61.3989 117.858 58.6825L116.143 57.6535ZM110.192 63.3348C107.654 64.6967 104.86 65.7226 101.806 66.4083L102.244 68.3597C105.461 67.6374 108.428 66.5513 111.138 65.0972L110.192 63.3348ZM101.806 66.4083C98.7493 67.0944 95.4634 67.44 91.9447 67.44V69.44C95.5941 69.44 99.0282 69.0816 102.244 68.3597L101.806 66.4083ZM91.9447 67.44C84.4611 67.44 77.0658 65.9942 69.7534 63.0944L69.0161 64.9536C76.5517 67.9418 84.1964 69.44 91.9447 69.44V67.44ZM70.3848 64.024V47.704H68.3848V64.024H70.3848ZM68.8868 48.5712C75.5108 52.3751 82.7293 54.2108 90.5216 54.0799L90.4879 52.0801C83.0482 52.2052 76.1867 50.4569 69.8827 46.8368L68.8868 48.5712ZM90.5233 54.0798C94.0716 54.0141 97.0748 53.4225 99.4857 52.2515L98.6118 50.4525C96.5427 51.4575 93.8499 52.0179 90.4862 52.0802L90.5233 54.0798ZM99.5061 52.2413C100.743 51.6054 101.729 50.7888 102.403 49.7671C103.082 48.739 103.409 47.5591 103.409 46.264H101.409C101.409 47.2089 101.175 47.997 100.734 48.6649C100.289 49.3392 99.5949 49.9466 98.5914 50.4627L99.5061 52.2413ZM103.409 46.264C103.409 44.1349 102.493 42.4591 100.693 41.3753C98.9738 40.3404 96.5245 39.888 93.4808 39.888V41.888C96.389 41.888 98.4037 42.3316 99.6609 43.0887C100.837 43.7969 101.409 44.8091 101.409 46.264H103.409ZM93.4808 39.888H82.3447V41.888H93.4808V39.888ZM83.3447 40.8945L83.4407 26.0145L81.4408 26.0015L81.3448 40.8815L83.3447 40.8945ZM82.4301 27.0079L91.4541 27.1039L91.4754 25.1041L82.4514 25.0081L82.4301 27.0079ZM91.4418 27.1037C94.293 27.1693 96.6042 26.7944 98.2345 25.8387C99.9513 24.8323 100.817 23.2367 100.817 21.208H98.8167C98.8167 22.5713 98.2902 23.4877 97.223 24.1133C96.0693 24.7896 94.2045 25.1667 91.4877 25.1043L91.4418 27.1037ZM100.817 21.208C100.817 20.1242 100.57 19.1283 100.043 18.2553C99.5172 17.3841 98.7459 16.6901 97.7803 16.1567C95.8792 15.1065 93.1561 14.64 89.7368 14.64V16.64C93.0374 16.64 95.3543 17.1015 96.8132 17.9073C97.5276 18.3019 98.0163 18.7679 98.3306 19.2887C98.6438 19.8077 98.8167 20.4358 98.8167 21.208H100.817ZM89.7368 14.64C82.9796 14.64 76.3884 16.8295 69.9781 21.1466L71.0954 22.8054C77.2291 18.6745 83.4379 16.64 89.7368 16.64V14.64ZM71.5368 21.976V5.65599H69.5368V21.976H71.5368ZM71.0329 6.52424C77.1356 3.03697 84.1606 1.27999 92.1367 1.27999V-0.720005C83.8569 -0.720005 76.4819 1.10702 70.0406 4.78775L71.0329 6.52424ZM92.1367 1.27999C99.2988 1.27999 104.97 2.78807 109.235 5.71273L110.366 4.06327C105.671 0.843926 99.5667 -0.720005 92.1367 -0.720005V1.27999ZM109.249 5.72185C113.48 8.52303 115.617 12.7023 115.617 18.424H117.617C117.617 12.1137 115.209 7.26897 110.353 4.05415L109.249 5.72185Z" fill="#59A71C"/>
</svg>
