<svg width="35" height="35" viewBox="0 0 35 35" fill="none" xmlns="http://www.w3.org/2000/svg">
<path d="M18.8413 3.29561L28.3351 8.41436C29.4434 9.01227 29.4434 10.7185 28.3351 11.3164L18.8413 16.4352C17.9955 16.8873 17.0038 16.8873 16.158 16.4352L6.66426 11.3164C5.55592 10.7185 5.55592 9.01227 6.66426 8.41436L16.158 3.29561C17.0038 2.84352 17.9955 2.84352 18.8413 3.29561Z" stroke="white" stroke-width="1.5" stroke-linecap="round" stroke-linejoin="round"/>
<path d="M5.26491 14.7725L14.0878 19.1913C15.1816 19.7455 15.8816 20.8684 15.8816 22.0934V30.435C15.8816 31.6455 14.6128 32.4184 13.5337 31.8788L4.71074 27.46C3.61699 26.9059 2.91699 25.783 2.91699 24.558V16.2163C2.91699 15.0059 4.18574 14.233 5.26491 14.7725Z" stroke="white" stroke-width="1.5" stroke-linecap="round" stroke-linejoin="round"/>
<path d="M29.7358 14.7725L20.9129 19.1913C19.8191 19.7455 19.1191 20.8684 19.1191 22.0934V30.435C19.1191 31.6455 20.3879 32.4184 21.4671 31.8788L30.29 27.46C31.3837 26.9059 32.0837 25.783 32.0837 24.558V16.2163C32.0837 15.0059 30.815 14.233 29.7358 14.7725Z" stroke="white" stroke-width="1.5" stroke-linecap="round" stroke-linejoin="round"/>
</svg>
