<svg width="35" height="35" viewBox="0 0 35 35" fill="none" xmlns="http://www.w3.org/2000/svg">
<path d="M24.2225 29.1665C26.1767 29.1811 28.0579 28.4519 29.5017 27.1394C34.2704 22.9686 31.7184 14.5977 25.4329 13.8102C23.1871 0.189387 3.54336 5.35189 8.19544 18.3165" stroke="white" stroke-width="1.5" stroke-miterlimit="10" stroke-linecap="round" stroke-linejoin="round"/>
<path d="M10.6164 18.9146C9.84349 18.5209 8.98307 18.3167 8.12266 18.3313C1.32682 18.8125 1.34141 28.7 8.12266 29.1813" stroke="white" stroke-width="1.5" stroke-miterlimit="10" stroke-linecap="round" stroke-linejoin="round"/>
<path d="M23.0713 14.4231C23.8296 14.0439 24.6463 13.8398 25.4921 13.8252" stroke="white" stroke-width="1.5" stroke-miterlimit="10" stroke-linecap="round" stroke-linejoin="round"/>
<path d="M14.5397 29.1665L11.623 32.0832" stroke="white" stroke-width="1.5" stroke-miterlimit="10" stroke-linecap="round" stroke-linejoin="round"/>
<path d="M20.3727 29.1665L17.4561 32.0832" stroke="white" stroke-width="1.5" stroke-miterlimit="10" stroke-linecap="round" stroke-linejoin="round"/>
<path d="M20.3727 23.3335L17.4561 26.2502" stroke="white" stroke-width="1.5" stroke-miterlimit="10" stroke-linecap="round" stroke-linejoin="round"/>
<path d="M14.5397 23.3335L11.623 26.2502" stroke="white" stroke-width="1.5" stroke-miterlimit="10" stroke-linecap="round" stroke-linejoin="round"/>
</svg>
