<svg width="44" height="44" viewBox="0 0 44 44" fill="none" xmlns="http://www.w3.org/2000/svg">
<path d="M39.3617 34.8332V9.1665C39.3617 5.49984 37.5283 3.6665 33.8617 3.6665H26.5283C22.8617 3.6665 21.0283 5.49984 21.0283 9.1665V34.8332C21.0283 38.4998 22.8617 40.3332 26.5283 40.3332H33.8617C37.5283 40.3332 39.3617 38.4998 39.3617 34.8332Z" stroke="#59A71C" stroke-width="1.5" stroke-linecap="round"/>
<path d="M21.0283 11H30.195" stroke="#59A71C" stroke-width="1.5" stroke-linecap="round"/>
<path d="M21.0283 33H28.3617" stroke="#59A71C" stroke-width="1.5" stroke-linecap="round"/>
<path d="M21.0283 25.5752L30.195 25.6669" stroke="#59A71C" stroke-width="1.5" stroke-linecap="round"/>
<path d="M21.0283 18.3335H26.5283" stroke="#59A71C" stroke-width="1.5" stroke-linecap="round"/>
<path d="M10.0644 3.6665C7.07603 3.6665 4.6377 6.10484 4.6377 9.07484V32.8348C4.6377 33.6598 4.98603 34.9065 5.4077 35.6215L6.91103 38.1148C8.63436 40.9932 11.476 40.9932 13.1994 38.1148L14.7027 35.6215C15.1244 34.9065 15.4727 33.6598 15.4727 32.8348V9.07484C15.4727 6.10484 13.0344 3.6665 10.0644 3.6665Z" stroke="#59A71C" stroke-width="1.5" stroke-linecap="round"/>
<path d="M15.4727 12.8335H4.6377" stroke="#59A71C" stroke-width="1.5" stroke-linecap="round"/>
</svg>
