<svg width="44" height="44" viewBox="0 0 44 44" fill="none" xmlns="http://www.w3.org/2000/svg">
<path d="M34.2278 34.2282L38.2978 32.1932V27.0965M26.0695 17.9298L21.9995 19.9648L26.0695 17.9298ZM21.9995 19.9648L17.9295 17.9298L21.9995 19.9648ZM21.9995 19.9648V25.0615V19.9648ZM38.2978 11.8065L34.2278 13.8415L38.2978 11.8065ZM38.2978 11.8065L34.2278 9.77151L38.2978 11.8065ZM38.2978 11.8065V16.9032V11.8065ZM26.0695 5.70151L21.9995 3.6665L17.9295 5.70151H26.0695ZM5.70117 11.8065L9.77117 9.77151L5.70117 11.8065ZM5.70117 11.8065L9.77117 13.8415L5.70117 11.8065ZM5.70117 11.8065V16.9032V11.8065ZM21.9995 40.3332L17.9295 38.2982L21.9995 40.3332ZM21.9995 40.3332L26.0695 38.2982L21.9995 40.3332ZM21.9995 40.3332V35.2365V40.3332ZM9.77117 34.2282L5.70117 32.1932V27.0965L9.77117 34.2282Z" stroke="#59A71C" stroke-width="1.5" stroke-linecap="round" stroke-linejoin="round"/>
</svg>
