<svg width="44" height="44" viewBox="0 0 44 44" fill="none" xmlns="http://www.w3.org/2000/svg">
<path d="M36.6667 12.9068V31.0934C36.6667 33.8801 36.41 35.8601 35.75 37.2718C35.75 37.2901 35.7316 37.3268 35.7133 37.3451C35.31 37.8584 34.7783 38.1151 34.155 38.1151C33.1833 38.1151 32.01 37.4734 30.745 36.1168C29.2417 34.5034 26.9316 34.6317 25.6116 36.3918L23.76 38.8484C23.0267 39.8384 22.055 40.3334 21.0833 40.3334C20.1117 40.3334 19.14 39.8384 18.4066 38.8484L16.5367 36.3734C15.235 34.6318 12.9433 34.5034 11.44 36.0984L11.4216 36.1168C9.34996 38.3351 7.5167 38.6651 6.45337 37.3451C6.43504 37.3268 6.41667 37.2901 6.41667 37.2718C5.75667 35.8601 5.5 33.8801 5.5 31.0934V12.9068C5.5 10.1201 5.75667 8.14008 6.41667 6.72841C6.41667 6.71008 6.4167 6.69175 6.45337 6.67341C7.49837 5.33508 9.34996 5.66508 11.4216 7.88341L11.44 7.90175C12.9433 9.49675 15.235 9.36842 16.5367 7.62675L18.4066 5.15175C19.14 4.16175 20.1117 3.66675 21.0833 3.66675C22.055 3.66675 23.0267 4.16175 23.76 5.15175L25.6116 7.60842C26.9316 9.36842 29.2417 9.49675 30.745 7.88341C32.01 6.52675 33.1833 5.88508 34.155 5.88508C34.7783 5.88508 35.31 6.16008 35.7133 6.67341C35.75 6.69175 35.75 6.71008 35.75 6.72841C36.41 8.14008 36.6667 10.1201 36.6667 12.9068Z" stroke="#59A71C" stroke-width="1.5" stroke-linecap="round" stroke-linejoin="round"/>
<path d="M14.667 18.7917H29.3337" stroke="#59A71C" stroke-width="1.5" stroke-linecap="round" stroke-linejoin="round"/>
<path d="M14.667 25.2083H25.667" stroke="#59A71C" stroke-width="1.5" stroke-linecap="round" stroke-linejoin="round"/>
</svg>
