<svg width="44" height="44" viewBox="0 0 44 44" fill="none" xmlns="http://www.w3.org/2000/svg">
<path d="M19.7083 4.49143C20.9733 3.40976 23.0449 3.40976 24.3283 4.49143L27.225 6.98496C27.775 7.46162 28.8016 7.84657 29.5349 7.84657H32.6516C34.5949 7.84657 36.1899 9.44144 36.1899 11.3848V14.5016C36.1899 15.2166 36.5749 16.2616 37.0516 16.8116L39.545 19.7082C40.6266 20.9732 40.6266 23.0449 39.545 24.3282L37.0516 27.2248C36.5749 27.7748 36.1899 28.8015 36.1899 29.5348V32.6516C36.1899 34.595 34.5949 36.1898 32.6516 36.1898H29.5349C28.8199 36.1898 27.775 36.5748 27.225 37.0514L24.3283 39.5447C23.0633 40.6264 20.9916 40.6264 19.7083 39.5447L16.8116 37.0514C16.2616 36.5748 15.235 36.1898 14.5016 36.1898H11.3299C9.3866 36.1898 7.79161 34.595 7.79161 32.6516V29.5165C7.79161 28.8015 7.40663 27.7748 6.94829 27.2248L4.47328 24.3099C3.40995 23.0449 3.40995 20.9915 4.47328 19.7265L6.94829 16.8116C7.40663 16.2616 7.79161 15.2349 7.79161 14.5199V11.3848C7.79161 9.44144 9.3866 7.84657 11.3299 7.84657H14.5016C15.2166 7.84657 16.2616 7.46162 16.8116 6.98496L19.7083 4.49143Z" stroke="#59A71C" stroke-width="1.5" stroke-linecap="round" stroke-linejoin="round"/>
<path d="M18.1314 27.1701L20.7897 29.2235C21.1381 29.5718 21.9081 29.7368 22.4214 29.7368H25.6664C26.6931 29.7368 27.8114 28.9669 28.0681 27.9402L30.1214 21.6701C30.5431 20.4785 29.7731 19.4335 28.4898 19.4335H25.0614C24.5481 19.4335 24.1264 19.012 24.1998 18.407L24.6214 15.657C24.7864 14.887 24.2731 14.0253 23.5031 13.7686C22.8247 13.5119 21.9631 13.8602 21.6148 14.3735L18.0947 19.5985" stroke="#59A71C" stroke-width="1.5" stroke-miterlimit="10"/>
<path d="M13.75 27.1704V18.7738C13.75 17.5638 14.2633 17.1421 15.4733 17.1421H16.335C17.5267 17.1421 18.0583 17.5638 18.0583 18.7738V27.1704C18.0583 28.362 17.545 28.8021 16.335 28.8021H15.4733C14.2633 28.8021 13.75 28.3804 13.75 27.1704Z" stroke="#59A71C" stroke-width="1.5" stroke-linecap="round" stroke-linejoin="round"/>
</svg>
