<svg width="35" height="35" viewBox="0 0 35 35" fill="none" xmlns="http://www.w3.org/2000/svg">
<path d="M11.8996 32.0837C5.80374 32.0837 4.57874 28.3941 6.56208 23.9024L12.76 9.82949H12.3225C11.3746 9.82949 10.4996 9.45033 9.87249 8.82324C9.23083 8.19616 8.85166 7.32116 8.85166 6.37324C8.85166 4.47741 10.3975 2.91699 12.3079 2.91699H22.6767C23.6392 2.91699 24.4996 3.31074 25.1267 3.93783C25.9433 4.75449 26.3517 5.95033 26.0454 7.21908C25.6517 8.79408 24.135 9.82949 22.5162 9.82949H22.2829L28.4371 23.917C30.4058 28.4087 29.1225 32.0837 23.085 32.0837H11.8996Z" stroke="white" stroke-width="1.5" stroke-linecap="round" stroke-linejoin="round"/>
<path d="M8.66211 19.1337C8.66211 19.1337 13.1246 18.9587 17.4996 20.4171C21.8746 21.8754 26.0017 19.1191 26.0017 19.1191" stroke="white" stroke-width="1.5" stroke-linecap="round" stroke-linejoin="round"/>
</svg>
