<svg width="35" height="35" viewBox="0 0 35 35" fill="none" xmlns="http://www.w3.org/2000/svg">
<path d="M18.973 4.2583L27.5772 8.07913C30.0564 9.17288 30.0564 10.9812 27.5772 12.075L18.973 15.8958C17.996 16.3333 16.3918 16.3333 15.4147 15.8958L6.81055 12.075C4.33138 10.9812 4.33138 9.17288 6.81055 8.07913L15.4147 4.2583C16.3918 3.8208 17.996 3.8208 18.973 4.2583Z" stroke="white" stroke-width="1.5" stroke-linecap="round" stroke-linejoin="round"/>
<path d="M4.375 16.0415C4.375 17.2665 5.29375 18.6811 6.41667 19.1769L16.3187 23.5811C17.0771 23.9165 17.9375 23.9165 18.6813 23.5811L28.5833 19.1769C29.7063 18.6811 30.625 17.2665 30.625 16.0415" stroke="white" stroke-width="1.5" stroke-linecap="round" stroke-linejoin="round"/>
<path d="M4.375 23.3335C4.375 24.6897 5.17708 25.9147 6.41667 26.4689L16.3187 30.8731C17.0771 31.2085 17.9375 31.2085 18.6813 30.8731L28.5833 26.4689C29.8229 25.9147 30.625 24.6897 30.625 23.3335" stroke="white" stroke-width="1.5" stroke-linecap="round" stroke-linejoin="round"/>
</svg>
