<svg width="35" height="35" viewBox="0 0 35 35" fill="none" xmlns="http://www.w3.org/2000/svg">
<path d="M10.9082 26.7606L15.429 30.2606C16.0124 30.8439 17.3249 31.1356 18.1999 31.1356H23.7415C25.4915 31.1356 27.3874 29.8231 27.8249 28.0731L31.3249 17.4273C32.054 15.3856 30.7415 13.6356 28.554 13.6356H22.7207C21.8457 13.6356 21.1165 12.9064 21.2624 11.8856L21.9915 7.21893C22.2832 5.90643 21.4082 4.44809 20.0957 4.01059C18.929 3.57309 17.4707 4.15643 16.8874 5.03143L10.9082 13.9273" stroke="white" stroke-width="1.5" stroke-miterlimit="10"/>
<path d="M3.4707 26.7607V12.4691C3.4707 10.4274 4.3457 9.69824 6.38737 9.69824H7.8457C9.88737 9.69824 10.7624 10.4274 10.7624 12.4691V26.7607C10.7624 28.8024 9.88737 29.5316 7.8457 29.5316H6.38737C4.3457 29.5316 3.4707 28.8024 3.4707 26.7607Z" stroke="white" stroke-width="1.5" stroke-linecap="round" stroke-linejoin="round"/>
</svg>
