<svg width="144" height="9" viewBox="0 0 144 9" fill="none" xmlns="http://www.w3.org/2000/svg">
<path d="M0.392578 0.272338H3.32221C5.74927 0.272338 6.9628 1.19576 6.9628 3.04262C6.9628 4.88947 5.74927 5.8129 3.32221 5.8129H1.42224V8.85285H0.392578V0.272338ZM5.92088 3.04262C5.92088 2.69122 5.8555 2.39704 5.72475 2.16005C5.594 1.91489 5.40605 1.73102 5.16089 1.60845C4.9239 1.4777 4.6624 1.3878 4.37639 1.33877C4.09037 1.28157 3.75532 1.25297 3.37124 1.25297H1.42224V4.83227H3.37124C4.16392 4.83227 4.78498 4.70152 5.23444 4.44001C5.69206 4.17851 5.92088 3.71271 5.92088 3.04262Z" fill="#59A71C"/>
<path d="M15.2998 0.272338H16.3294V7.87222H21.0855V8.85285H15.2998V0.272338Z" fill="#59A71C"/>
<path d="M29.2014 0.272338H34.9872V1.25297H30.2311V4.0355H34.6194V5.01613H30.2311V7.87222H35.0607V8.85285H29.2014V0.272338Z" fill="#59A71C"/>
<path d="M44.6355 8.85285H43.6059V0.272338H44.562L49.7226 7.12449V6.38902V0.272338H50.7522V8.85285H49.7961L44.6355 1.98844V2.72391V8.85285Z" fill="#59A71C"/>
<path d="M60.8356 8.85285H59.8059V0.272338H60.8356V3.98647H62.7846L65.371 0.272338H66.5477L63.6304 4.45227L66.8051 8.85285H65.6284L62.8213 4.9671H60.8356V8.85285Z" fill="#59A71C"/>
<path d="M74.8345 8.85285H73.7191L77.4577 0.272338H78.5977L82.3241 8.85285H81.2209L80.3383 6.78127H75.7171L74.8345 8.85285ZM77.8867 1.65748L76.1216 5.82515H79.9338L78.1564 1.65748C78.1401 1.61662 78.0951 1.5063 78.0216 1.32652C77.948 1.51447 77.9031 1.62479 77.8867 1.65748Z" fill="#59A71C"/>
<path d="M89.4515 4.56259C89.4515 3.62282 89.6762 2.80972 90.1256 2.12328C90.5751 1.42866 91.139 0.922005 91.8172 0.603301C92.4955 0.284596 93.2269 0.125244 94.0114 0.125244C94.9593 0.125244 95.8174 0.317284 96.5855 0.701364V1.73102C95.9236 1.31426 95.1146 1.10587 94.1585 1.10587C93.6927 1.10587 93.2473 1.17534 92.8224 1.31426C92.3974 1.44501 92.0052 1.64522 91.6456 1.91489C91.2942 2.17639 91.0123 2.53596 90.7998 2.99359C90.5955 3.45121 90.4934 3.97422 90.4934 4.56259C90.4934 5.18366 90.5996 5.72709 90.8121 6.19289C91.0246 6.65052 91.3106 7.01008 91.6701 7.27158C92.0297 7.52491 92.4179 7.71287 92.8346 7.83544C93.2596 7.95802 93.709 8.01931 94.183 8.01931C94.7959 8.01931 95.323 7.91308 95.7643 7.70061V4.29292H96.7939V8.42382C95.9604 8.8079 95.0656 8.99994 94.1095 8.99994C93.4966 8.99994 92.9204 8.91822 92.3811 8.75479C91.8418 8.59135 91.3473 8.3421 90.8979 8.00705C90.4566 7.66383 90.1052 7.19803 89.8437 6.60966C89.5822 6.02128 89.4515 5.33892 89.4515 4.56259Z" fill="#59A71C"/>
<path d="M105.475 8.85285H104.359L108.098 0.272338H109.238L112.964 8.85285H111.861L110.979 6.78127H106.357L105.475 8.85285ZM108.527 1.65748L106.762 5.82515H110.574L108.797 1.65748C108.78 1.61662 108.735 1.5063 108.662 1.32652C108.588 1.51447 108.543 1.62479 108.527 1.65748Z" fill="#59A71C"/>
<path d="M122.021 8.85285H120.991V0.272338H124.35C124.913 0.272338 125.424 0.349971 125.882 0.505238C126.339 0.652332 126.732 0.930177 127.059 1.33877C127.394 1.7392 127.561 2.24994 127.561 2.87101C127.561 3.60648 127.349 4.17851 126.924 4.58711C126.499 4.9957 125.947 5.26129 125.269 5.38387L128.174 8.85285H126.887L124.08 5.46968H122.021V8.85285ZM122.021 1.25297V4.48905H124.399C125.003 4.48905 125.506 4.36647 125.906 4.12131C126.315 3.86798 126.519 3.45121 126.519 2.87101C126.519 2.28263 126.315 1.86586 125.906 1.6207C125.506 1.37555 125.003 1.25297 124.399 1.25297H122.021Z" fill="#59A71C"/>
<path d="M136.317 0.272338H139.136C140.599 0.272338 141.719 0.668676 142.495 1.46135C143.279 2.24586 143.672 3.2796 143.672 4.56259C143.672 5.84558 143.279 6.88342 142.495 7.67609C141.719 8.4606 140.599 8.85285 139.136 8.85285H136.317V0.272338ZM141.735 7.00191C142.332 6.4217 142.63 5.6086 142.63 4.56259C142.63 3.51659 142.332 2.70348 141.735 2.12328C141.147 1.54307 140.28 1.25297 139.136 1.25297H137.347V7.87222H139.136C140.28 7.87222 141.147 7.58211 141.735 7.00191Z" fill="#59A71C"/>
</svg>
