<svg width="35" height="35" viewBox="0 0 35 35" fill="none" xmlns="http://www.w3.org/2000/svg">
<path d="M24.748 17.8643V24.4268C24.748 29.8955 22.5605 32.083 17.0918 32.083H10.5293C5.06055 32.083 2.87305 29.8955 2.87305 24.4268V17.8643C2.87305 12.3955 5.06055 10.208 10.5293 10.208H17.0918C22.5605 10.208 24.748 12.3955 24.748 17.8643Z" stroke="white" stroke-width="1.5" stroke-linecap="round" stroke-linejoin="round"/>
<path d="M32.0397 8.53158V13.3441C32.0397 17.3545 30.4355 18.9587 26.4251 18.9587H24.748V17.8649C24.748 12.3962 22.5605 10.2087 17.0918 10.2087H15.998V8.53158C15.998 4.52116 17.6022 2.91699 21.6126 2.91699H26.4251C30.4355 2.91699 32.0397 4.52116 32.0397 8.53158Z" stroke="white" stroke-width="1.5" stroke-linecap="round" stroke-linejoin="round"/>
</svg>
