<svg width="35" height="35" viewBox="0 0 35 35" fill="none" xmlns="http://www.w3.org/2000/svg">
<path d="M17.4997 26.9793C22.7349 26.9793 26.9788 22.7354 26.9788 17.5002C26.9788 12.265 22.7349 8.021 17.4997 8.021C12.2645 8.021 8.02051 12.265 8.02051 17.5002C8.02051 22.7354 12.2645 26.9793 17.4997 26.9793Z" stroke="white" stroke-width="1.5" stroke-linecap="round" stroke-linejoin="round"/>
<path d="M27.9128 27.9123L27.7232 27.7228M27.7232 7.27692L27.9128 7.08734L27.7232 7.27692ZM7.08783 27.9123L7.27741 27.7228L7.08783 27.9123ZM17.5003 3.03317V2.9165V3.03317ZM17.5003 32.0832V31.9665V32.0832ZM3.03366 17.4998H2.91699H3.03366ZM32.0837 17.4998H31.967H32.0837ZM7.27741 7.27692L7.08783 7.08734L7.27741 7.27692Z" stroke="white" stroke-width="2" stroke-linecap="round" stroke-linejoin="round"/>
</svg>
