<svg width="35" height="35" viewBox="0 0 35 35" fill="none" xmlns="http://www.w3.org/2000/svg">
<path d="M2.91699 21.875H26.9795C29.7941 21.875 32.0837 24.1646 32.0837 26.9792C32.0837 29.7938 29.7941 32.0833 26.9795 32.0833C24.1649 32.0833 21.8753 29.7938 21.8753 26.9792V26.25" stroke="white" stroke-width="1.5" stroke-miterlimit="10" stroke-linecap="round" stroke-linejoin="round"/>
<path d="M2.91699 17.4998H26.9795C29.7795 17.4998 32.0837 15.2103 32.0837 12.3957C32.0837 9.59567 29.7795 7.2915 26.9795 7.2915C24.1795 7.2915 21.8753 9.58109 21.8753 12.3957V13.1248" stroke="white" stroke-width="1.5" stroke-miterlimit="10" stroke-linecap="round" stroke-linejoin="round"/>
<path d="M2.91699 13.1251H13.5774C15.7503 13.1251 17.5003 11.3605 17.5003 9.20221C17.5003 7.0293 15.7357 5.2793 13.5774 5.2793C11.4045 5.2793 9.65448 7.04388 9.65448 9.20221V9.75638" stroke="white" stroke-width="1.5" stroke-miterlimit="10" stroke-linecap="round" stroke-linejoin="round"/>
</svg>
