<svg width="35" height="35" viewBox="0 0 35 35" fill="none" xmlns="http://www.w3.org/2000/svg">
<path d="M2.91699 19.1039L6.56283 16.9164C8.80866 15.5747 11.6087 15.5747 13.8545 16.9164C16.1003 18.2581 18.9003 18.2581 21.1462 16.9164C23.392 15.5747 26.192 15.5747 28.4378 16.9164L32.0837 19.1039" stroke="white" stroke-width="1.5" stroke-miterlimit="10" stroke-linecap="round" stroke-linejoin="round"/>
<path d="M2.91699 5.6875L6.56283 7.875C8.80866 9.21667 11.6087 9.21667 13.8545 7.875C16.1003 6.53333 18.9003 6.53333 21.1462 7.875C23.392 9.21667 26.192 9.21667 28.4378 7.875L32.0837 5.6875" stroke="white" stroke-width="1.5" stroke-miterlimit="10" stroke-linecap="round" stroke-linejoin="round"/>
<path d="M2.91699 29.3129L6.56283 27.1254C8.80866 25.7837 11.6087 25.7837 13.8545 27.1254C16.1003 28.4671 18.9003 28.4671 21.1462 27.1254C23.392 25.7837 26.192 25.7837 28.4378 27.1254L32.0837 29.3129" stroke="white" stroke-width="1.5" stroke-miterlimit="10" stroke-linecap="round" stroke-linejoin="round"/>
</svg>
