<svg width="80" height="80" viewBox="0 0 80 80" fill="none" xmlns="http://www.w3.org/2000/svg">
<g clip-path="url(#clip0_364:1862)">
<path d="M39.999 6.25122C39.1336 6.25122 38.438 6.9481 38.438 7.81216C38.438 8.61638 39.043 9.2856 39.8427 9.36497C40.7685 9.45685 41.5599 8.73575 41.5599 7.81216C41.5599 6.94685 40.863 6.25122 39.999 6.25122Z" fill="#555555"/>
<path d="M71.2504 9.37494C66.9426 9.37494 63.4379 5.87025 63.4379 1.56244C63.4379 0.699627 62.7382 -6.10352e-05 61.8754 -6.10352e-05H18.1254C17.2626 -6.10352e-05 16.5629 0.699627 16.5629 1.56244C16.5629 5.87025 13.0582 9.37494 8.75037 9.37494C7.88755 9.37494 7.18787 10.0746 7.18787 10.9374V36.4359C7.18787 56.3073 20.1402 74.1132 39.5516 79.9342C39.698 79.9779 39.8491 79.9999 40.0004 79.9999C40.1516 79.9999 40.303 79.9779 40.4493 79.934C59.4402 74.2373 72.8129 56.742 72.8129 36.4359V10.9374C72.8129 10.0746 72.1132 9.37494 71.2504 9.37494ZM69.6879 36.4359C69.6879 55.0996 57.7783 71.2627 40.0004 76.8035C22.3641 71.307 10.3129 54.9974 10.3129 36.4359V12.3887C15.0958 11.7015 18.8894 7.90791 19.5766 3.12494H60.4241C61.1113 7.90791 64.9049 11.7015 69.6879 12.3887V36.4359Z" fill="#555555"/>
<path d="M65.6272 14.4515C62.3688 13.0245 59.7883 10.444 58.3613 7.18556C58.1122 6.61713 57.5507 6.24994 56.9301 6.24994H46.2472C45.3844 6.24994 44.6847 6.94963 44.6847 7.81244C44.6847 8.67525 45.3844 9.37494 46.2472 9.37494H55.9421C57.5929 12.6063 60.2065 15.2198 63.4379 16.8707V36.4359C63.4379 51.727 54.2583 64.9207 40.0004 70.2021C25.7424 64.9206 16.5629 51.727 16.5629 36.4359V16.8707C19.7943 15.2198 22.4077 12.6063 24.0586 9.37494H33.7535C34.6163 9.37494 35.316 8.67525 35.316 7.81244C35.316 6.94963 34.6163 6.24994 33.7535 6.24994H23.0707C22.4501 6.24994 21.8885 6.61728 21.6394 7.18556C20.2124 10.444 17.6319 13.0245 14.3735 14.4515C13.8052 14.7006 13.4379 15.2623 13.4379 15.8828V36.4359C13.4379 53.1879 23.799 67.7879 39.4791 73.3368C39.6477 73.3965 39.824 73.4264 40.0004 73.4264C40.1768 73.4264 40.353 73.3965 40.5216 73.3368C56.1886 67.7926 66.5629 53.2015 66.5629 36.4359V15.8828C66.5629 15.2621 66.1955 14.7006 65.6272 14.4515Z" fill="#555555"/>
<g clip-path="url(#clip1_364:1862)">
<path d="M42.255 38.4687C45.7039 38.4687 48.4894 35.6774 48.4894 32.2343C48.4894 28.7967 45.6927 25.9999 42.255 25.9999H35.979C35.6554 25.9999 35.3931 26.2623 35.3931 26.5859V34.7864H34.0962C33.7726 34.7864 33.5102 35.0487 33.5102 35.3723V37.8828C33.5102 38.2063 33.7726 38.4687 34.0962 38.4687H35.3931V39.8072H34.0962C33.7726 39.8072 33.5102 40.0696 33.5102 40.3932V42.9036C33.5102 43.2272 33.7726 43.4895 34.0962 43.4895H35.3931V45.414C35.3931 45.7376 35.6554 45.9999 35.979 45.9999H38.4894C38.813 45.9999 39.0754 45.7376 39.0754 45.414V43.4895H42.8826C43.2062 43.4895 43.4686 43.2272 43.4686 42.9036V40.3931C43.4686 40.0695 43.2062 39.8072 42.8826 39.8072H39.0753V38.4687H42.255ZM39.0753 29.6822H42.255C43.6622 29.6822 44.8071 30.8271 44.8071 32.2343C44.8071 33.6415 43.6622 34.7864 42.255 34.7864H39.0753V29.6822Z" fill="#505050"/>
</g>
</g>
<defs>
<clipPath id="clip0_364:1862">
<rect width="80" height="80" fill="white" transform="translate(0.000366211)"/>
</clipPath>
<clipPath id="clip1_364:1862">
<rect width="20" height="20" fill="white" transform="translate(31.0004 25.9999)"/>
</clipPath>
</defs>
</svg>
