<svg width="80" height="80" viewBox="0 0 80 80" fill="none" xmlns="http://www.w3.org/2000/svg">
<g clip-path="url(#clip0_364:1840)">
<path d="M39.9986 6.25134C39.1333 6.25134 38.4377 6.94822 38.4377 7.81228C38.4377 8.6165 39.0427 9.28572 39.8423 9.36509C40.7681 9.45697 41.5595 8.73587 41.5595 7.81228C41.5595 6.94697 40.8627 6.25134 39.9986 6.25134Z" fill="#555555"/>
<path d="M71.25 9.37506C66.9422 9.37506 63.4375 5.87037 63.4375 1.56256C63.4375 0.699749 62.7378 6.10352e-05 61.875 6.10352e-05H18.125C17.2622 6.10352e-05 16.5625 0.699749 16.5625 1.56256C16.5625 5.87037 13.0578 9.37506 8.75 9.37506C7.88719 9.37506 7.1875 10.0747 7.1875 10.9376V36.436C7.1875 56.3074 20.1398 74.1133 39.5513 79.9343C39.6977 79.978 39.8488 80.0001 40 80.0001C40.1512 80.0001 40.3027 79.978 40.4489 79.9341C59.4398 74.2374 72.8125 56.7421 72.8125 36.436V10.9376C72.8125 10.0747 72.1128 9.37506 71.25 9.37506ZM69.6875 36.436C69.6875 55.0997 57.778 71.2629 40 76.8037C22.3637 71.3071 10.3125 54.9976 10.3125 36.436V12.3888C15.0955 11.7016 18.8891 7.90803 19.5763 3.12506H60.4238C61.1109 7.90803 64.9045 11.7016 69.6875 12.3888V36.436Z" fill="#555555"/>
<path d="M65.6269 14.4516C62.3684 13.0246 59.788 10.4441 58.3609 7.18569C58.1119 6.61725 57.5503 6.25006 56.9297 6.25006H46.2469C45.3841 6.25006 44.6844 6.94975 44.6844 7.81256C44.6844 8.67537 45.3841 9.37506 46.2469 9.37506H55.9417C57.5925 12.6065 60.2061 15.2199 63.4375 16.8708V36.436C63.4375 51.7271 54.258 64.9209 40 70.2023C25.742 64.9207 16.5625 51.7271 16.5625 36.436V16.8708C19.7939 15.2199 22.4073 12.6065 24.0583 9.37506H33.7531C34.6159 9.37506 35.3156 8.67537 35.3156 7.81256C35.3156 6.94975 34.6159 6.25006 33.7531 6.25006H23.0703C22.4497 6.25006 21.8881 6.6174 21.6391 7.18569C20.212 10.4441 17.6316 13.0246 14.3731 14.4516C13.8048 14.7007 13.4375 15.2624 13.4375 15.8829V36.436C13.4375 53.188 23.7986 67.788 39.4788 73.3369C39.6473 73.3966 39.8236 73.4265 40 73.4265C40.1764 73.4265 40.3527 73.3966 40.5212 73.3369C56.1883 67.7927 66.5625 53.2016 66.5625 36.436V15.8829C66.5625 15.2623 66.1952 14.7007 65.6269 14.4516Z" fill="#555555"/>
<g clip-path="url(#clip1_364:1840)">
<path d="M45.0781 30.2962L38.9844 25.7259C38.4618 25.3426 37.7656 25.7334 37.7656 26.3353V28.6204H35.3789C30.7628 28.6204 27 32.3833 27 36.9993C27 41.3411 30.3211 44.9212 34.5563 45.3325L32.3778 43.7024C31.9723 43.3986 31.9734 42.7869 32.3778 42.4837L34.6934 40.7469C32.9109 40.4271 31.5703 38.8731 31.5703 36.9993C31.5703 34.897 33.2766 33.1907 35.3789 33.1907H37.7656V35.4759C37.7656 36.0772 38.4616 36.4688 38.9844 36.0852L45.0781 31.5149C45.4844 31.2337 45.4853 30.5782 45.0781 30.2962Z" fill="#505050"/>
<path d="M45.444 28.6663L47.6225 30.2963C48.0279 30.6004 48.027 31.2119 47.6225 31.5151L45.3069 33.2518C47.0893 33.5718 48.43 35.1256 48.43 36.9995C48.43 39.1019 46.7237 40.8081 44.6214 40.8081H42.3362V38.523C42.3362 37.9231 41.6413 37.5294 41.1175 37.9135L34.9222 42.4838C34.5158 42.7653 34.515 43.4208 34.9222 43.7026L41.1175 48.2729C41.5998 48.6482 42.3362 48.2955 42.3362 47.6636V45.3784H44.6214C49.2374 45.3784 53.0003 41.6155 53.0003 36.9995C53.0003 32.6577 49.6792 29.0776 45.444 28.6663Z" fill="#505050"/>
</g>
</g>
<defs>
<clipPath id="clip0_364:1840">
<rect width="80" height="80" fill="white"/>
</clipPath>
<clipPath id="clip1_364:1840">
<rect width="26" height="26" fill="white" transform="translate(27 24.0001)"/>
</clipPath>
</defs>
</svg>
