<svg width="80" height="80" viewBox="0 0 80 80" fill="none" xmlns="http://www.w3.org/2000/svg">
<g clip-path="url(#clip0_364:1822)">
<path d="M39.9986 6.25079C39.1333 6.25079 38.4377 6.94767 38.4377 7.81173C38.4377 8.61595 39.0427 9.28517 39.8424 9.36454C40.7682 9.45642 41.5596 8.73533 41.5596 7.81173C41.5596 6.94642 40.8627 6.25079 39.9986 6.25079Z" fill="#555555"/>
<path d="M71.25 9.37451C66.9422 9.37451 63.4375 5.86982 63.4375 1.56201C63.4375 0.699199 62.7378 -0.000488281 61.875 -0.000488281H18.125C17.2622 -0.000488281 16.5625 0.699199 16.5625 1.56201C16.5625 5.86982 13.0578 9.37451 8.75 9.37451C7.88719 9.37451 7.1875 10.0742 7.1875 10.937V36.4354C7.1875 56.3069 20.1398 74.1128 39.5513 79.9337C39.6977 79.9775 39.8488 79.9995 40 79.9995C40.1512 79.9995 40.3027 79.9775 40.4489 79.9336C59.4398 74.2369 72.8125 56.7415 72.8125 36.4354V10.937C72.8125 10.0742 72.1128 9.37451 71.25 9.37451ZM69.6875 36.4354C69.6875 55.0992 57.778 71.2623 40 76.8031C22.3637 71.3065 10.3125 54.997 10.3125 36.4354V12.3883C15.0955 11.7011 18.8891 7.90748 19.5763 3.12451H60.4238C61.1109 7.90748 64.9045 11.7011 69.6875 12.3883V36.4354Z" fill="#555555"/>
<path d="M65.6269 14.4511C62.3684 13.024 59.788 10.4436 58.3609 7.18514C58.1119 6.6167 57.5503 6.24951 56.9297 6.24951H46.2469C45.3841 6.24951 44.6844 6.9492 44.6844 7.81201C44.6844 8.67482 45.3841 9.37451 46.2469 9.37451H55.9417C57.5925 12.6059 60.2061 15.2194 63.4375 16.8703V36.4355C63.4375 51.7266 54.258 64.9203 40 70.2017C25.742 64.9201 16.5625 51.7266 16.5625 36.4355V16.8703C19.7939 15.2194 22.4073 12.6059 24.0583 9.37451H33.7531C34.6159 9.37451 35.3156 8.67482 35.3156 7.81201C35.3156 6.9492 34.6159 6.24951 33.7531 6.24951H23.0703C22.4497 6.24951 21.8881 6.61686 21.6391 7.18514C20.212 10.4436 17.6316 13.024 14.3731 14.4511C13.8048 14.7001 13.4375 15.2619 13.4375 15.8823V36.4355C13.4375 53.1875 23.7986 67.7875 39.4788 73.3364C39.6473 73.3961 39.8236 73.4259 40 73.4259C40.1764 73.4259 40.3527 73.3961 40.5212 73.3364C56.1883 67.7922 66.5625 53.2011 66.5625 36.4355V15.8823C66.5625 15.2617 66.1952 14.7001 65.6269 14.4511Z" fill="#555555"/>
<g clip-path="url(#clip1_364:1822)">
<path d="M30.48 46.165L31.957 25H45.18C45.18 25 50.898 25.773 50.676 31.163C50.676 31.163 51.051 34.465 46.721 36.943C46.018 37.344 45.286 37.528 44.317 37.869L41.547 38.079L38.369 38.1L37.697 34.38L41.108 34.41L41.961 34.419C41.961 34.419 42.408 34.33 42.99 34.107C44.05 33.701 45.541 32.843 45.556 31.24C45.556 31.24 45.48 28.449 42.34 28.449C39.199 28.449 36.453 28.37 36.453 28.37L35.206 46.165H30.48Z" fill="#505050"/>
</g>
</g>
<defs>
<clipPath id="clip0_364:1822">
<rect width="80" height="80" fill="white" transform="translate(0 -0.000488281)"/>
</clipPath>
<clipPath id="clip1_364:1822">
<rect width="21.165" height="21.165" fill="white" transform="translate(30 25)"/>
</clipPath>
</defs>
</svg>
