<svg width="114" height="112" viewBox="0 0 114 112" fill="none" xmlns="http://www.w3.org/2000/svg">
<rect x="0.0502525" y="56" width="80" height="80" rx="10.5" transform="rotate(-45 0.0502525 56)" stroke="#F8B043" stroke-width="7"/>
<g clip-path="url(#clip0_364:1608)">
<path d="M91.0915 19.2474C91.1341 19.2505 91.1767 19.2536 91.2201 19.2536C91.2938 19.2536 91.3674 19.2474 91.4395 19.2373C93.3692 19.2769 94.9135 20.8507 94.9159 22.7803C94.9159 23.6571 95.6268 24.3681 96.5036 24.3681C97.3804 24.3681 98.0914 23.6571 98.0914 22.7803C98.0875 19.6242 95.8904 16.8937 92.8079 16.2146V14.6888C92.8079 13.812 92.097 13.1011 91.2201 13.1011C90.3433 13.1011 89.6324 13.812 89.6324 14.6888V16.2867C86.3732 17.1581 84.2644 20.3111 84.704 23.6564C85.1436 27.0017 87.995 29.5027 91.369 29.5027C93.3281 29.5027 94.9159 31.0912 94.9159 33.0503C94.9159 35.0086 93.3281 36.5972 91.369 36.5972C89.4099 36.5972 87.8221 35.0086 87.8221 33.0503C87.8221 32.1735 87.1112 31.4626 86.2344 31.4626C85.3576 31.4626 84.6466 32.1735 84.6466 33.0503C84.6505 36.0925 86.6941 38.754 89.6324 39.544V41.2837C89.6324 42.1605 90.3433 42.8714 91.2201 42.8714C92.097 42.8714 92.8079 42.1605 92.8079 41.2837V39.6168C96.1609 38.8827 98.4224 35.7397 98.0526 32.327C97.6836 28.9142 94.8019 26.3279 91.369 26.3287C89.4642 26.3295 87.8989 24.8255 87.8237 22.9222C87.7493 21.0189 89.192 19.3963 91.0915 19.2482V19.2474Z" fill="#181818"/>
<path d="M91.4593 5.33789C81.6917 5.33789 73.356 11.7114 70.2332 20.2455H30.8255C29.9525 20.2455 29.2439 21.0324 29.2377 21.9046L28.8625 77.6031H17.6296C16.7528 77.6031 16 78.238 16 79.1164V86.1845C16.0202 92.8387 21.261 98.3051 27.9081 98.6059V98.6408H76.93V98.5943C77.3269 98.609 77.4905 98.6408 77.7417 98.6408H77.7758C84.6555 98.6299 90.2274 93.0495 90.2274 86.1698V50.433C90.6243 50.4547 91.0445 50.4663 91.4554 50.4663C103.885 50.4663 114 40.332 114 27.9013C114 15.4714 103.89 5.33789 91.4593 5.33789ZM28.5121 95.4653H28.502C23.3658 95.4583 19.1988 91.3052 19.1755 86.1682V80.7786H65.2203V86.1458C65.2226 89.4593 66.546 92.6355 68.8966 94.9714C69.0633 95.1381 69.2703 95.2668 69.4448 95.4653H28.5121ZM87.0519 86.1682C87.0527 91.2959 82.9011 95.4552 77.7743 95.4653H77.744C72.5962 95.456 68.4214 91.2943 68.3958 86.1473V79.1164C68.409 78.7102 68.2539 78.3171 67.9663 78.0302C67.6787 77.7434 67.2856 77.5891 66.8802 77.6031H32.038L32.4024 23.421H69.3517C69.0703 24.8747 68.9245 26.3508 68.9168 27.8308C68.9137 30.9605 69.5665 34.0554 70.8333 36.9169H55.8364C54.9588 36.9169 54.2487 37.6279 54.2487 38.5047C54.2487 39.3815 54.9588 40.0924 55.8364 40.0924H72.5559C75.8314 45.2433 81.0676 48.8344 87.0519 50.036V86.1682ZM91.4593 47.2916C80.7637 47.2916 72.0923 38.621 72.0931 27.9246C72.0931 17.2282 80.7637 8.55758 91.4601 8.55758C102.156 8.55758 110.826 17.229 110.826 27.9246C110.815 38.6156 102.151 47.28 91.4593 47.2916Z" fill="#181818"/>
<path d="M45.6445 47.4839C42.8419 47.4839 40.5626 49.6911 40.5626 52.4045C40.5626 55.118 42.8419 57.3252 45.6445 57.3252C48.4471 57.3252 50.7271 55.118 50.7271 52.4045C50.7271 49.6911 48.4471 47.4839 45.6445 47.4839ZM45.6445 54.1497C44.5924 54.1497 43.7381 53.3666 43.7381 52.4045C43.7381 51.4416 44.5932 50.6594 45.6445 50.6594C46.6957 50.6594 47.5516 51.4424 47.5516 52.4045C47.5516 53.3666 46.6957 54.1497 45.6445 54.1497Z" fill="#181818"/>
<path d="M54.2488 52.3978C54.2488 53.2747 54.959 53.9856 55.8366 53.9856H77.0045C77.8814 53.9856 78.5923 53.2747 78.5923 52.3978C78.5923 51.521 77.8814 50.8101 77.0045 50.8101H55.8366C54.959 50.8101 54.2488 51.521 54.2488 52.3978Z" fill="#181818"/>
<path d="M45.6445 33.6821C42.8419 33.6821 40.5626 35.8901 40.5626 38.6035C40.5626 41.317 42.8419 43.5242 45.6445 43.5242C48.4471 43.5242 50.7271 41.317 50.7271 38.6035C50.7271 35.8901 48.4471 33.6821 45.6445 33.6821ZM45.6445 40.3487C44.5924 40.3487 43.7381 39.5657 43.7381 38.6035C43.7381 37.6414 44.5932 36.8576 45.6445 36.8576C46.6957 36.8576 47.5516 37.6407 47.5516 38.6035C47.5516 39.5657 46.6957 40.3495 45.6445 40.3495V40.3487Z" fill="#181818"/>
<path d="M45.6445 61.2847C42.8419 61.2847 40.5626 63.4919 40.5626 66.2053C40.5626 68.9187 42.8419 71.1259 45.6445 71.1259C48.4471 71.1259 50.7271 68.9187 50.7271 66.2053C50.7271 63.4919 48.4471 61.2847 45.6445 61.2847ZM45.6445 67.9504C44.5924 67.9504 43.7381 67.1682 43.7381 66.2053C43.7381 65.2432 44.5932 64.4602 45.6445 64.4602C46.6957 64.4602 47.5516 65.2432 47.5516 66.2053C47.5516 67.1674 46.6957 67.9504 45.6445 67.9504Z" fill="#181818"/>
<path d="M77.0045 64.7026H55.8366C54.959 64.7026 54.2488 65.4136 54.2488 66.2904C54.2488 67.1672 54.959 67.8781 55.8366 67.8781H77.0045C77.8814 67.8781 78.5923 67.1672 78.5923 66.2904C78.5923 65.4136 77.8814 64.7026 77.0045 64.7026Z" fill="#181818"/>
</g>
<defs>
<clipPath id="clip0_364:1608">
<rect width="98" height="98" fill="white" transform="translate(16 3)"/>
</clipPath>
</defs>
</svg>
