<svg width="113" height="112" viewBox="0 0 113 112" fill="none" xmlns="http://www.w3.org/2000/svg">
<rect x="0.0502525" y="56" width="80" height="80" rx="10.5" transform="rotate(-45 0.0502525 56)" stroke="#F8B043" stroke-width="7"/>
<g clip-path="url(#clip0_364:1593)">
<path d="M105.413 68.7015C105.238 67.9623 104.577 67.4406 103.817 67.4406C101.583 67.4406 97.5751 66.3281 94.1857 64.855V57.7357C94.1857 55.0218 91.9778 52.8139 89.2639 52.8139H85.9827V23.2826C85.9827 21.4734 84.5108 20.0015 82.7016 20.0015H33.4841C31.6748 20.0015 30.2029 21.4734 30.2029 23.2826V42.9704H25.2812C23.4719 42.9704 22 44.4424 22 46.2516V93.8287C22 96.5425 24.2079 98.7504 26.9218 98.7504H80.2104C82.1402 100.534 84.4272 102.236 87.1385 103.784C87.3905 103.928 87.6712 104 87.9519 104C88.2326 104 88.5132 103.928 88.7653 103.784C100.119 97.3026 104.049 88.119 105.346 81.5561C106.748 74.4619 105.468 68.9335 105.413 68.7015ZM33.4841 23.2826H82.7016V52.8139H54.2819L51.532 45.9393C50.8106 44.1358 49.1438 42.9703 47.2857 42.9703H33.4841V23.2826ZM25.2812 93.8287V92.188H33.8115C34.7176 92.188 35.4521 91.4535 35.4521 90.5474C35.4521 89.6413 34.7176 88.9068 33.8115 88.9068H25.2812V46.2516H47.2857C47.8641 46.2516 48.3051 46.7067 48.4856 47.1579L51.6481 55.0638C51.8973 55.6868 52.5006 56.0951 53.1714 56.0951H89.2642C90.1689 56.0951 90.9048 56.8311 90.9048 57.7357V63.1744C90.1776 62.7242 89.5594 62.2672 89.1056 61.8183C88.4664 61.1862 87.4378 61.1862 86.7984 61.8183C84.1077 64.479 75.7324 67.4404 72.0865 67.4404C71.3268 67.4404 70.6663 67.9621 70.4904 68.7014C70.4353 68.9333 69.1558 74.4618 70.5581 81.556C71.3597 85.6117 73.1678 90.6681 77.1108 95.4693H26.9218C26.0171 95.4693 25.2812 94.7333 25.2812 93.8287ZM102.127 80.9198C100.489 89.2049 95.7222 95.7736 87.9518 100.457C80.2243 95.7992 75.4663 89.2743 73.8029 81.05C72.8722 76.4477 73.2082 72.5126 73.4772 70.6358C77.7101 70.1595 84.3955 67.7693 87.9519 65.1282C91.509 67.77 98.1966 70.1605 102.429 70.6361C102.698 72.4882 103.03 76.3488 102.127 80.9198Z" fill="#181818"/>
<path d="M39.4728 29.8442H76.7138C77.6199 29.8442 78.3544 29.1097 78.3544 28.2036C78.3544 27.2975 77.6199 26.563 76.7138 26.563H39.4728C38.5667 26.563 37.8322 27.2975 37.8322 28.2036C37.8322 29.1097 38.5667 29.8442 39.4728 29.8442Z" fill="#181818"/>
<path d="M78.3544 34.7661C78.3544 33.86 77.6199 33.1255 76.7138 33.1255H39.4728C38.5667 33.1255 37.8322 33.86 37.8322 34.7661C37.8322 35.6722 38.5667 36.4067 39.4728 36.4067H76.7138C77.6198 36.4067 78.3544 35.6722 78.3544 34.7661Z" fill="#181818"/>
<path d="M76.7138 39.688H58.0932C57.1871 39.688 56.4526 40.4225 56.4526 41.3286C56.4526 42.2347 57.1871 42.9692 58.0932 42.9692H76.7138C77.6199 42.9692 78.3544 42.2347 78.3544 41.3286C78.3544 40.4225 77.6198 39.688 76.7138 39.688Z" fill="#181818"/>
<path d="M76.7128 46.25H67.0334C66.1273 46.25 65.3928 46.9845 65.3928 47.8906C65.3928 48.7967 66.1273 49.5312 67.0334 49.5312H76.7128C77.6189 49.5312 78.3534 48.7967 78.3534 47.8906C78.3534 46.9845 77.6188 46.25 76.7128 46.25Z" fill="#181818"/>
<path d="M94.0809 73.7456C92.7663 73.7456 91.5305 74.2576 90.6009 75.1872L86.0729 79.7152L85.3035 78.9458C84.3739 78.0162 83.1381 77.5043 81.8235 77.5043C80.5089 77.5043 79.273 78.0164 78.3437 78.9458C77.4141 79.8753 76.9021 81.1112 76.9021 82.4258C76.9021 83.7404 77.4141 84.9762 78.3435 85.9058L82.5929 90.1552C83.5523 91.1146 84.8126 91.5942 86.0728 91.5942C87.3329 91.5942 88.5934 91.1144 89.5528 90.1552L97.5608 82.1472C99.4796 80.2284 99.4796 77.106 97.5608 75.1873C96.6316 74.2576 95.3957 73.7456 94.0809 73.7456ZM95.2408 79.8268L87.233 87.8348C86.5935 88.4743 85.5529 88.4741 84.9134 87.8348L80.6639 83.5853C80.354 83.2756 80.1836 82.8636 80.1836 82.4256C80.1836 81.9874 80.3542 81.5756 80.6639 81.2659C80.9737 80.956 81.3856 80.7855 81.8237 80.7855C82.2617 80.7855 82.6736 80.9561 82.9834 81.2659L84.9129 83.1954C85.2205 83.503 85.6378 83.6759 86.0729 83.6759C86.508 83.6759 86.9254 83.503 87.233 83.1954L92.9211 77.5073C93.2308 77.1974 93.6427 77.0269 94.0808 77.0269C94.519 77.0269 94.9308 77.1976 95.2405 77.5073C95.8803 78.1468 95.8803 79.1873 95.2408 79.8268Z" fill="#181818"/>
<path d="M41.1938 88.9058C40.2877 88.9058 39.5532 89.6403 39.5532 90.5464C39.5532 91.4525 40.2877 92.187 41.1938 92.187H41.1949C42.1011 92.187 42.8351 91.4525 42.8351 90.5464C42.8351 89.6403 42.0999 88.9058 41.1938 88.9058Z" fill="#181818"/>
</g>
<defs>
<clipPath id="clip0_364:1593">
<rect width="84" height="84" fill="white" transform="translate(22 20)"/>
</clipPath>
</defs>
</svg>
