<svg width="113" height="112" viewBox="0 0 113 112" fill="none" xmlns="http://www.w3.org/2000/svg">
<rect x="0.0502525" y="56" width="80" height="80" rx="10.5" transform="rotate(-45 0.0502525 56)" stroke="#F8B043" stroke-width="7"/>
<g clip-path="url(#clip0_364:1651)">
<path d="M30.8237 41.5337C29.9829 41.5337 29.3003 42.2157 29.3003 43.0565C29.3003 43.8974 29.9829 44.58 30.8237 44.58C31.6646 44.58 32.3472 43.8974 32.3472 43.0565C32.3472 42.2157 31.6646 41.5337 30.8237 41.5337Z" fill="#181818"/>
<path d="M73.5079 59.7367C73.2228 59.4511 72.8348 59.2904 72.4308 59.2904C72.4153 59.2934 71.8297 59.2606 71.3536 59.7367L70.2771 60.8132L66.7768 57.3135C74.5011 46.4858 73.3264 31.5495 63.8138 22.0376C53.0986 11.3223 35.754 11.3206 25.0376 22.0376C14.3223 32.7522 14.3205 50.0974 25.0376 60.8138C34.5263 70.3032 49.4566 71.5207 60.3129 63.7768L63.8132 67.2771L62.7367 68.3536C62.1422 68.9481 62.1416 69.9134 62.7367 70.5085L81.9963 89.7663C84.9723 92.7441 89.7896 92.7459 92.7663 89.7669C95.7441 86.7914 95.7453 81.9735 92.7663 78.9969L73.5079 59.7367ZM65.9674 65.1229L62.7057 61.8612C63.0848 61.5214 63.4556 61.1727 63.8138 60.8138C64.1726 60.4556 64.5214 60.0848 64.8612 59.7064L68.1229 62.9681L65.9674 65.1229ZM27.1918 58.6596C17.6667 49.1351 17.6655 33.7175 27.1918 24.1918C36.7163 14.6668 52.1339 14.6656 61.6596 24.1918C71.1632 33.6949 71.2114 49.1089 61.6596 58.6596C52 68.3203 36.5865 68.0549 27.1918 58.6596ZM72.4308 62.9681L76.7386 67.2765L70.2765 73.7386L65.968 69.4308L72.4308 62.9681ZM90.612 87.6126C88.8268 89.3997 85.9376 89.4003 84.1511 87.6126L72.4308 75.8929L78.8929 69.4308L90.6126 81.1517C92.3991 82.9364 92.4009 85.8256 90.612 87.6126Z" fill="#181818"/>
<path d="M59.5057 26.3462C51.175 18.0154 37.6789 18.0107 29.3446 26.345C21.0312 34.6602 21.0312 48.1902 29.3446 56.5061C37.6801 64.8409 51.1684 64.8415 59.5045 56.5061C67.8197 48.1902 67.8203 34.6608 59.5057 26.3462ZM57.3503 54.3512C50.2062 61.4953 38.6447 61.4971 31.4988 54.3518C24.3732 47.2238 24.3732 35.6266 31.4988 28.4986C38.6394 21.3587 50.2086 21.3569 57.3515 28.5004C64.4783 35.6272 64.4777 47.2238 57.3503 54.3512Z" fill="#181818"/>
<path d="M44.4255 26.1938C40.3539 26.1938 36.5286 27.778 33.6543 30.6541C31.9881 32.3203 30.7616 34.2889 30.0094 36.5062C29.7392 37.3025 30.1653 38.1677 30.9621 38.4379C31.7602 38.7087 32.6242 38.2802 32.8944 37.4851C33.4948 35.7147 34.4756 34.1413 35.8086 32.8077C38.108 30.5077 41.168 29.2407 44.4255 29.2407C45.267 29.2407 45.9489 28.5587 45.9489 27.7173C45.9489 26.8758 45.267 26.1938 44.4255 26.1938Z" fill="#181818"/>
</g>
<defs>
<clipPath id="clip0_364:1651">
<rect width="78" height="78" fill="white" transform="translate(17 14)"/>
</clipPath>
</defs>
</svg>
