<svg width="113" height="112" viewBox="0 0 113 112" fill="none" xmlns="http://www.w3.org/2000/svg">
<rect x="0.0502525" y="56" width="80" height="80" rx="10.5" transform="rotate(-45 0.0502525 56)" stroke="#F8B043" stroke-width="7"/>
<g clip-path="url(#clip0_364:1574)">
<path d="M59.3297 73.3867C60.1819 73.3867 60.8727 72.6959 60.8727 71.8438C60.8727 70.9916 60.1819 70.3008 59.3297 70.3008C58.4776 70.3008 57.7867 70.9916 57.7867 71.8438C57.7867 72.6959 58.4776 73.3867 59.3297 73.3867Z" fill="#181818"/>
<path d="M32.1735 40.9844V47.1562C32.1735 48.0084 32.8643 48.6992 33.7165 48.6992H78.3083C79.1603 48.6992 79.8513 48.0084 79.8513 47.1562V40.9844C79.8513 40.1322 79.1603 39.4414 78.3083 39.4414H33.7165C32.8643 39.4414 32.1735 40.1322 32.1735 40.9844ZM48.529 42.5273H76.7653V45.6133H48.529V42.5273ZM35.2595 42.5273H45.4431V45.6133H35.2595V42.5273Z" fill="#181818"/>
<path d="M33.7165 54.8711H78.3083C79.1603 54.8711 79.8513 54.1803 79.8513 53.3281C79.8513 52.4759 79.1603 51.7852 78.3083 51.7852H33.7165C32.8643 51.7852 32.1735 52.4759 32.1735 53.3281C32.1735 54.1803 32.8643 54.8711 33.7165 54.8711Z" fill="#181818"/>
<path d="M33.7165 61.043H78.3083C79.1603 61.043 79.8513 60.3522 79.8513 59.5C79.8513 58.6478 79.1603 57.957 78.3083 57.957H33.7165C32.8643 57.957 32.1735 58.6478 32.1735 59.5C32.1735 60.3522 32.8643 61.043 33.7165 61.043Z" fill="#181818"/>
<path d="M33.7165 67.2148H59.3298C60.182 67.2148 60.8727 66.5241 60.8727 65.6719C60.8727 64.8197 60.182 64.1289 59.3298 64.1289H33.7165C32.8643 64.1289 32.1735 64.8197 32.1735 65.6719C32.1735 66.5241 32.8643 67.2148 33.7165 67.2148Z" fill="#181818"/>
<path d="M33.7165 73.3867H53.1579C54.0101 73.3867 54.7009 72.6959 54.7009 71.8438C54.7009 70.9916 54.0101 70.3008 53.1579 70.3008H33.7165C32.8643 70.3008 32.1735 70.9916 32.1735 71.8438C32.1735 72.6959 32.8643 73.3867 33.7165 73.3867Z" fill="#181818"/>
<path d="M46.986 85.7305H54.8561C55.573 89.2477 58.6899 91.9023 62.4157 91.9023C66.6697 91.9023 70.1306 88.4415 70.1306 84.1875C70.1306 79.9335 66.6697 76.4727 62.4157 76.4727C58.6901 76.4727 55.573 79.1273 54.8561 82.6445H46.986C46.1338 82.6445 45.4431 83.3353 45.4431 84.1875C45.4431 85.0397 46.1338 85.7305 46.986 85.7305ZM62.4157 82.6445H58.0522C58.6891 80.8487 60.4041 79.5586 62.4157 79.5586C64.9681 79.5586 67.0446 81.6351 67.0446 84.1875C67.0446 86.7399 64.9681 88.8164 62.4157 88.8164C60.4043 88.8164 58.6891 87.5263 58.0522 85.7305H62.4157C63.2677 85.7305 63.9587 85.0397 63.9587 84.1875C63.9587 83.3353 63.2679 82.6445 62.4157 82.6445Z" fill="#181818"/>
<path d="M78.3082 32.3438C79.1603 32.3438 79.8512 31.653 79.8512 30.8008C79.8512 29.9486 79.1603 29.2578 78.3082 29.2578H75.2223C74.3703 29.2578 73.6793 29.9486 73.6793 30.8008C73.6793 31.653 74.3703 32.3438 75.2223 32.3438H78.3082Z" fill="#181818"/>
<path d="M69.0504 32.3438C69.9024 32.3438 70.5934 31.653 70.5934 30.8008C70.5934 29.9486 69.9024 29.2578 69.0504 29.2578H65.9645C65.1125 29.2578 64.4215 29.9486 64.4215 30.8008C64.4215 31.653 65.1125 32.3438 65.9645 32.3438H69.0504Z" fill="#181818"/>
<path d="M59.7926 32.3438C60.6448 32.3438 61.3356 31.653 61.3356 30.8008C61.3356 29.9486 60.6448 29.2578 59.7926 29.2578H56.7067C55.8545 29.2578 55.1637 29.9486 55.1637 30.8008C55.1637 31.653 55.8545 32.3438 56.7067 32.3438H59.7926Z" fill="#181818"/>
<path d="M56.2438 99C57.0959 99 57.7867 98.3092 57.7867 97.457C57.7867 96.6049 57.0959 95.9141 56.2438 95.9141C55.3916 95.9141 54.7008 96.6049 54.7008 97.457C54.7008 98.3092 55.3916 99 56.2438 99Z" fill="#181818"/>
<path d="M27.545 99H49.3008C50.153 99 50.8438 98.3092 50.8438 97.457C50.8438 96.6049 50.153 95.9141 49.3008 95.9141H29.088V35.4297H39.8887C40.7409 35.4297 41.4317 34.7389 41.4317 33.8867V23.0859H82.9376V66.6983C82.2377 67.5264 81.5841 68.2534 81.0186 68.8336L77.7475 65.5625C74.7333 62.5463 69.8517 62.5449 66.8364 65.5622L64.6546 67.7439C64.0521 68.3465 64.0521 69.3235 64.6546 69.926L82.9374 88.2088V95.9141H63.1874C62.3352 95.9141 61.6444 96.6049 61.6444 97.457C61.6444 98.3092 62.3352 99 63.1874 99H84.4804C85.3324 99 86.0233 98.3092 86.0233 97.457V91.2947L86.4753 91.7467C87.0778 92.3487 88.055 92.3492 88.6575 91.7467L90.8393 89.5649C93.8539 86.5502 93.8545 81.6694 90.8393 78.6543L87.5686 75.3835C90.4955 72.5316 96.9335 67.7945 100.316 66.3213C105.064 64.2545 106.778 57.7989 102.726 53.7478C98.7059 49.7253 92.279 51.3598 90.1735 56.1214C89.3838 57.906 87.7478 60.4151 86.0235 62.7665V21.543C86.0235 20.6908 85.3326 20 84.4805 20H39.8887C39.468 20 39.0725 20.1774 38.7977 20.4519L26.4539 32.7957C26.1748 33.0742 26.002 33.468 26.002 33.8867V97.457C26.002 98.3092 26.6928 99 27.545 99ZM88.657 80.8363C90.4659 82.645 90.4662 85.5737 88.657 87.3828L87.5665 88.4736L67.9279 68.835L69.0189 67.7439C70.8276 65.9343 73.7554 65.9334 75.5651 67.7442L88.657 80.8363ZM85.6899 68.2182C88.3639 64.9933 91.66 60.3881 92.9956 57.3698C94.1949 54.6577 98.0065 53.3909 100.544 55.9297C103.083 58.4685 101.793 62.3128 99.0843 63.492C95.2449 65.1642 88.5625 70.0959 85.3864 73.2013L83.2008 71.0156C83.9323 70.2671 84.787 69.3076 85.6899 68.2182ZM38.3458 25.268V32.3438H31.27L38.3458 25.268Z" fill="#181818"/>
</g>
<defs>
<clipPath id="clip0_364:1574">
<rect width="79" height="79" fill="white" transform="translate(26 20)"/>
</clipPath>
</defs>
</svg>
