<svg width="113" height="112" viewBox="0 0 113 112" fill="none" xmlns="http://www.w3.org/2000/svg">
<rect x="0.0502525" y="56" width="80" height="80" rx="10.5" transform="rotate(-45 0.0502525 56)" stroke="#F8B043" stroke-width="7"/>
<path d="M22.9565 49.0908H19.3463C18.7358 49.0908 18.3347 49.4745 18.3347 49.9105V61.0026C18.3347 61.561 19.0151 61.8397 19.6949 61.8397C20.3751 61.8397 21.0553 61.561 21.0553 61.0026V57.2355H22.7818C25.1892 57.2355 27.0728 56.1191 27.0728 53.1892V53.1021C27.0728 50.172 25.2587 49.0908 22.9565 49.0908ZM24.3515 53.3986C24.3515 54.5846 23.7586 55.1427 22.7818 55.1427H21.0553V51.4627H22.7818C23.7586 51.4627 24.3515 52.0209 24.3515 53.2068V53.3986Z" fill="#181818"/>
<path d="M82.6364 49.0908H75.1019C74.5264 49.0908 74.2823 49.7186 74.2823 50.2943C74.2823 50.9567 74.5788 51.5324 75.1019 51.5324H77.5088V61.0027C77.5088 61.5612 78.1889 61.8399 78.8691 61.8399C79.5493 61.8399 80.2293 61.5612 80.2293 61.0027V51.5324H82.6362C83.1595 51.5324 83.4559 50.9567 83.4559 50.2943C83.4561 49.7186 83.2121 49.0908 82.6364 49.0908Z" fill="#181818"/>
<path d="M93.1293 49.0908C92.6937 49.0908 92.5188 49.265 92.3446 49.5963L89.9205 54.0787L87.4786 49.5963C87.287 49.265 87.1299 49.0908 86.6939 49.0908C85.9435 49.0908 84.8451 49.5616 84.8451 50.2066C84.8451 50.2594 84.8451 50.3289 84.8797 50.3988L88.4901 56.3808C88.5251 56.4335 88.5603 56.5203 88.5603 56.6251V61.0026C88.5603 61.561 89.2405 61.8397 89.9206 61.8397C90.6003 61.8397 91.2808 61.561 91.2808 61.0026V56.6251C91.2808 56.5203 91.3155 56.4334 91.3505 56.3808L94.9434 50.3988C94.9781 50.3289 94.9781 50.2596 94.9781 50.2066C94.9781 49.5616 93.8791 49.0908 93.1293 49.0908Z" fill="#181818"/>
<path d="M36.0668 56.3633C37.2873 55.8925 38.177 54.7767 38.177 52.8232C38.177 49.9804 36.2758 49.0908 33.8863 49.0908H30.2762C29.7702 49.0908 29.4389 49.4745 29.4389 49.9105V61.0026C29.4389 61.561 30.1192 61.8397 30.7992 61.8397C31.4794 61.8397 32.1596 61.561 32.1596 61.0026V56.7993H33.311L35.7001 61.4385C35.892 61.8048 36.2232 61.944 36.5721 61.944C37.3747 61.944 38.2813 61.2117 38.2813 60.5316C38.2813 60.4441 38.2639 60.3222 38.1942 60.2177L36.0668 56.3633ZM33.8865 54.7065H32.1598V51.4625H33.8865C34.8631 51.4625 35.4562 51.8635 35.4562 53.0847C35.4562 54.3057 34.8631 54.7065 33.8865 54.7065Z" fill="#181818"/>
<path d="M42.1643 49.0908C41.4841 49.0908 40.8036 49.3348 40.8036 49.9105V61.0026C40.8036 61.561 41.4841 61.8397 42.1643 61.8397C42.8439 61.8397 43.5241 61.561 43.5241 61.0026V49.9105C43.5241 49.3348 42.8439 49.0908 42.1643 49.0908Z" fill="#181818"/>
<path d="M64.5631 56.3633C65.7837 55.8925 66.6733 54.7767 66.6733 52.8232C66.6733 49.9804 64.7724 49.0908 62.3824 49.0908H58.7721C58.2665 49.0908 57.935 49.4745 57.935 49.9105V61.0026C57.935 61.561 58.6155 61.8397 59.2957 61.8397C59.9757 61.8397 60.6556 61.561 60.6556 61.0026V56.7993H61.8068L64.1962 61.4385C64.388 61.8048 64.7191 61.944 65.068 61.944C65.8705 61.944 66.7773 61.2117 66.7773 60.5316C66.7773 60.4441 66.7599 60.3222 66.6902 60.2177L64.5631 56.3633ZM62.3826 54.7065H60.6559V51.4625H62.3826C63.3596 51.4625 63.9527 51.8635 63.9527 53.0847C63.9527 54.3057 63.3596 54.7065 62.3826 54.7065Z" fill="#181818"/>
<path d="M70.6615 49.0908C69.9814 49.0908 69.301 49.3348 69.301 49.9105V61.0026C69.301 61.561 69.9814 61.8397 70.6615 61.8397C71.3417 61.8397 72.0217 61.561 72.0217 61.0026V49.9105C72.0217 49.3348 71.3417 49.0908 70.6615 49.0908Z" fill="#181818"/>
<path d="M50.7208 49.0908C48.3143 49.0908 46.4481 50.2066 46.4481 53.2066V57.8286C46.4481 60.8284 48.3143 61.9444 50.7208 61.9444C53.1275 61.9444 55.0115 60.8286 55.0115 57.8286V53.2066C55.0115 50.2066 53.1275 49.0908 50.7208 49.0908ZM52.2906 57.8286C52.2906 59.032 51.6973 59.5727 50.7208 59.5727C49.744 59.5727 49.1689 59.032 49.1689 57.8286V53.2066C49.1689 52.0032 49.744 51.4625 50.7208 51.4625C51.6973 51.4625 52.2906 52.0032 52.2906 53.2066V57.8286Z" fill="#181818"/>
<path d="M97.5337 38.5921H94.7033C91.5553 31.4826 86.5121 25.4179 80.0564 21.0009C73.1028 16.243 64.957 13.728 56.5001 13.728C48.043 13.728 39.8972 16.243 32.9434 21.0009C26.4879 25.4179 21.4445 31.4828 18.2967 38.5921H15.4661C13.0034 38.5921 11 40.5955 11 43.0582V67.9419C11 70.4046 13.0034 72.408 15.4661 72.408H18.2962C21.4442 79.5175 26.4876 85.5825 32.943 89.9996C39.8969 94.7575 48.0428 97.2724 56.5001 97.2724C64.9572 97.2724 73.1029 94.7575 80.0568 89.9996C86.5121 85.5825 91.5553 79.5175 94.7035 72.408H97.5337C99.9962 72.408 102 70.4044 102 67.9419V43.0582C102 40.5955 99.9962 38.5921 97.5337 38.5921ZM56.5001 17.2827C71.1905 17.2827 84.3686 25.5626 90.7816 38.5921H78.2531C73.0493 31.91 64.9864 27.9466 56.5001 27.9466C48.0138 27.9466 39.9511 31.91 34.7463 38.5921H30.389C36.0888 29.7648 45.8403 24.3919 56.4999 24.3919C60.3043 24.3919 64.0355 25.0797 67.5898 26.436C68.5069 26.7861 69.5342 26.3263 69.884 25.4092C70.2341 24.4921 69.7743 23.465 68.8572 23.1151C64.8968 21.6036 60.739 20.8374 56.4999 20.8374C50.1456 20.8374 43.9172 22.5826 38.4883 25.8843C33.3716 28.9963 29.157 33.3755 26.2421 38.5925H22.2182C28.6312 25.5626 41.8097 17.2827 56.5001 17.2827ZM73.5224 38.5921H39.4774C43.9512 34.1015 50.0867 31.5013 56.5001 31.5013C62.9134 31.5013 69.049 34.1015 73.5224 38.5921ZM56.5001 93.7178C41.8093 93.7178 28.6309 85.4377 22.218 72.408H34.7463C39.9502 79.0904 48.0133 83.0539 56.5001 83.0539C64.9865 83.0539 73.0494 79.0904 78.2537 72.408H82.611C76.9111 81.2351 67.1597 86.6082 56.5001 86.6082C52.6959 86.6082 48.9643 85.9206 45.4095 84.5643C44.4922 84.2145 43.4653 84.6743 43.1153 85.5914C42.7653 86.5085 43.2253 87.5356 44.1424 87.8856C48.1034 89.3967 52.2613 90.1629 56.5001 90.1629C62.8541 90.1629 69.0822 88.4177 74.5113 85.1161C79.6281 82.0042 83.8429 77.625 86.7579 72.408H90.7816C84.3688 85.4377 71.1905 93.7178 56.5001 93.7178ZM39.4771 72.408H73.5231C69.0495 76.8988 62.914 79.4992 56.5003 79.4992C50.086 79.4992 43.9505 76.8988 39.4771 72.408ZM98.4455 67.9419C98.4453 68.436 98.0278 68.8533 97.5337 68.8533H93.5175C93.5136 68.8533 93.5097 68.8531 93.5059 68.8533H85.7658C85.7183 68.8515 85.671 68.8512 85.6238 68.8533H19.4936C19.4898 68.8531 19.4861 68.8533 19.4824 68.8533H15.4661C14.9722 68.8533 14.5547 68.4358 14.5547 67.9419V43.0582C14.5547 42.5641 14.9722 42.1468 15.4661 42.1468H19.4765C19.4838 42.1466 19.4909 42.147 19.498 42.1468H27.2381C27.2582 42.1475 27.2785 42.1504 27.2989 42.1504C27.3165 42.1504 27.3336 42.1473 27.3514 42.1468H35.6277C35.6286 42.1468 35.6293 42.147 35.6302 42.147C35.6306 42.147 35.6313 42.1468 35.6316 42.1468H93.5253C93.5272 42.1468 93.5292 42.1472 93.5312 42.1472C93.5342 42.1472 93.5372 42.1468 93.5402 42.1468H97.5339C98.028 42.1468 98.4455 42.5643 98.4455 43.0582V67.9419Z" fill="#181818"/>
<path d="M71.9996 28.5282L72.0757 28.5716C72.3501 28.7248 72.6475 28.7977 72.9409 28.7977C73.5639 28.7977 74.1687 28.4694 74.4939 27.8868C74.9728 27.03 74.6662 25.9472 73.8091 25.4684L73.794 25.4597C72.9466 24.9642 71.858 25.2494 71.3624 26.0967C70.8671 26.9439 71.1524 28.0325 71.9996 28.5282Z" fill="#181818"/>
<path d="M40.9837 82.4629L40.9381 82.437C40.0858 81.9502 39.0002 82.2463 38.5131 83.0983C38.0262 83.9506 38.3224 85.0364 39.1746 85.5233L39.2201 85.5493C39.4982 85.7082 39.8013 85.7837 40.1002 85.7837C40.7173 85.7837 41.3172 85.4619 41.6451 84.8878C42.1321 84.0357 41.836 82.9499 40.9837 82.4629Z" fill="#181818"/>
</svg>
