<svg width="113" height="112" viewBox="0 0 113 112" fill="none" xmlns="http://www.w3.org/2000/svg">
<rect x="0.0502525" y="56" width="80" height="80" rx="10.5" transform="rotate(-45 0.0502525 56)" stroke="#F8B043" stroke-width="7"/>
<g clip-path="url(#clip0_364:1621)">
<path d="M79.5811 77.3413H69.672C68.079 77.3413 66.783 78.6373 66.783 80.2305V84.1322C66.783 85.7254 68.079 87.0214 69.672 87.0214H79.5811C81.1743 87.0214 82.4703 85.7254 82.4703 84.1322V80.2305C82.4703 78.6373 81.1743 77.3413 79.5811 77.3413ZM79.6578 84.1322C79.6578 84.1746 79.6233 84.2089 79.5811 84.2089H69.672C69.6298 84.2089 69.5955 84.1744 69.5955 84.1322V80.2305C69.5955 80.1881 69.63 80.1538 69.672 80.1538H79.5811C79.6235 80.1538 79.6578 80.1883 79.6578 80.2305V84.1322Z" fill="#181818"/>
<path d="M85.3997 63.6529C80.8783 61.6399 72.5215 60.2969 67.6168 59.6605C66.9171 59.5696 66.3589 58.9765 66.3589 58.2306V50.8827C70.3039 47.8705 72.6799 43.5571 73.1502 38.7668H73.822C76.2771 38.7668 78.2743 36.7696 78.2743 34.3144V30.9389C78.2743 29.1895 77.26 27.6724 75.7887 26.9451L75.7864 21.2168C75.786 20.4402 75.1566 19.8111 74.3802 19.8111H74.3796C73.6028 19.8115 72.9735 20.4413 72.9739 21.2179L72.9762 26.4869H70.9005C70.3581 26.1198 70.0313 25.5123 70.0313 24.8429V21.8054C70.0313 19.1082 67.7473 17.0538 65.3091 17.1342L65.2517 17.1338C63.7753 17.1239 62.6134 17.3269 61.3309 17.7692C57.1174 19.2132 52.9118 19.1309 49.0437 17.7839C47.3631 17.2009 46.3433 17.1332 44.6417 17.1332C42.0655 17.1332 39.9696 19.2291 39.9696 21.8054V24.8431C39.9696 25.5121 39.6428 26.1198 39.1003 26.4869H37.0242V15.2466C37.0242 12.6962 39.2787 10.5775 42.0227 11.0044C44.1032 11.3296 45.9407 9.97881 46.137 7.88856C46.5928 7.219 47.35 6.81306 48.1729 6.81306L65.2112 6.8125C69.4892 6.81231 72.9713 10.2929 72.9728 14.5712C72.9732 15.3479 73.6024 15.9769 74.379 15.9769H74.3796C75.1562 15.9766 75.7857 15.3469 75.7853 14.5701C75.783 8.7415 71.0397 3.99981 65.2112 4L48.1733 4.00056C46.2085 4.00056 44.4193 5.08056 43.5042 6.81906C43.1997 7.39806 43.4935 7.76669 43.1224 8.08394C42.966 8.218 42.7294 8.26825 42.4562 8.22569C38.0862 7.54338 34.2118 10.8964 34.2118 15.2466V26.9453C32.7407 27.6728 31.7265 29.1897 31.7265 30.9389V34.3144C31.7265 36.7696 33.7238 38.7668 36.1789 38.7668H36.8496C37.3255 43.6891 39.7722 47.9787 43.642 50.9011V58.2304C43.642 58.9765 43.0832 59.5696 42.384 59.6603C37.4179 60.3044 29.1544 61.6257 24.6012 63.6528C19.1003 66.1019 15.5458 71.5756 15.5458 77.5969V81.2588C15.5458 82.0356 16.1753 82.6651 16.9521 82.6651C17.7289 82.6651 18.3583 82.0356 18.3583 81.2588V77.5969C18.3583 72.685 21.2578 68.2201 25.7451 66.2221C28.6913 64.9103 33.472 63.8972 37.6727 63.1979L40.9594 71.6429C41.9674 74.2334 44.9856 75.3668 47.4405 74.1278L49.0817 73.2996L50.9355 77.2534L47.6993 97.1875H30.3432V91.3658C30.3432 90.589 29.7137 89.9596 28.9369 89.9596C28.1601 89.9596 27.5307 90.589 27.5307 91.3658V97.1875H20.9582C19.5246 97.1875 18.3585 96.0213 18.3585 94.5878V87.8566C18.3585 87.0798 17.7291 86.4503 16.9523 86.4503C16.1755 86.4503 15.546 87.0798 15.546 87.8566V94.5878C15.546 97.5721 17.974 100 20.9582 100H89.0427C92.0269 100 94.4548 97.5721 94.4548 94.5878V77.5973C94.455 71.5758 90.9006 66.1022 85.3997 63.6529ZM73.2366 29.2994C73.2555 29.2994 73.9287 29.3027 73.9097 29.3018C74.7733 29.3476 75.462 30.0644 75.462 30.9392V34.3148C75.462 35.2189 74.7263 35.9547 73.8222 35.9547H73.2334L73.2366 29.2994ZM36.1789 35.9545C35.2748 35.9545 34.539 35.2187 34.539 34.3146V30.9391C34.539 30.064 35.2281 29.347 36.0919 29.3016C36.1767 29.2971 36.2209 29.3005 36.7643 29.2994L36.7675 35.9545H36.1789ZM67.255 62.4496C67.9283 62.5369 68.6785 62.6393 69.4819 62.7563L66.4202 70.6231C66.0203 71.65 64.8223 72.1195 63.8271 71.6172L57.6184 68.4837L65.9061 62.0403C66.3186 62.2458 66.772 62.3869 67.255 62.4496ZM63.937 60.0089L55.0005 66.9567L46.0641 60.0089C46.3159 59.4631 46.4547 58.8589 46.4547 58.2308V52.6533C49.1725 54.0316 52.0219 54.7129 54.985 54.7459H55.0163C58.0287 54.7124 60.945 53.9873 63.5464 52.6555V58.2308C63.5464 58.8591 63.6852 59.4632 63.937 60.0089ZM58.4068 72.0321L56.7135 75.6439H53.2877L51.5944 72.0321L55.0005 70.3129L58.4068 72.0321ZM39.5809 37.3448L39.577 29.2952C40.635 29.2156 42.7823 27.4971 42.7823 24.8431V21.8054C42.7823 20.7897 43.6007 19.9615 44.6128 19.9459C45.1362 19.9669 46.3234 19.8336 47.893 20.3663C52.6039 21.9636 57.2787 22.1324 62.244 20.4293C63.1722 20.1109 64.0067 19.9401 65.2277 19.9461C66.5308 19.9594 67.2188 20.8711 67.2188 21.8054V24.8429C67.2188 27.4707 69.3484 29.2141 70.4241 29.2952L70.4202 37.3448C70.2302 45.8311 63.1268 51.8354 55.0005 51.9333C46.9249 51.8363 39.7725 45.9153 39.5809 37.3448ZM46.174 71.6174C45.1902 72.1141 43.9853 71.6622 43.5808 70.6233L40.5188 62.7558C41.32 62.6395 42.0702 62.5375 42.7459 62.4496C43.2291 62.3869 43.6823 62.2456 44.0948 62.0404L52.3825 68.4839L46.174 71.6174ZM50.5487 97.1875L53.5902 78.4564H56.4107L59.4523 97.1875H50.5487ZM91.6425 94.5878C91.6425 96.0214 90.4763 97.1875 89.0428 97.1875H82.4704V91.3658C82.4704 90.589 81.841 89.9596 81.0642 89.9596C80.2873 89.9596 79.6579 90.589 79.6579 91.3658V97.1875H62.3018L59.065 77.2536L60.9188 73.2998L62.56 74.128C65.0207 75.37 68.0352 74.2289 69.0411 71.6431L72.3268 63.2007C76.5358 63.9044 81.3418 64.9247 84.2556 66.2222C88.743 68.2202 91.6423 72.6852 91.6423 77.5971V94.5878H91.6425Z" fill="#181818"/>
</g>
<defs>
<clipPath id="clip0_364:1621">
<rect width="96" height="96" fill="white" transform="translate(7 4)"/>
</clipPath>
</defs>
</svg>
