<svg width="24" height="13" viewBox="0 0 24 13" fill="none" xmlns="http://www.w3.org/2000/svg">
<path d="M0.274981 5.7579C0.275261 5.75758 0.275496 5.75722 0.275824 5.7569L5.17445 0.305287C5.54143 -0.103112 6.13501 -0.101593 6.50031 0.308851C6.86555 0.719243 6.86415 1.38303 6.49716 1.79148L3.20823 5.45161H23.0625C23.5803 5.45161 24 5.92098 24 6.5C24 7.07902 23.5803 7.54839 23.0625 7.54839H3.20827L6.49712 11.2085C6.8641 11.617 6.86551 12.2808 6.50026 12.6911C6.13496 13.1016 5.54134 13.1031 5.1744 12.6947L0.275776 7.2431C0.275496 7.24278 0.275261 7.24242 0.274933 7.2421C-0.0922394 6.83229 -0.0910664 6.16635 0.274981 5.7579Z" fill="#C4C4C4"/>
</svg>
