<svg width="34" height="34" viewBox="0 0 34 34" fill="none" xmlns="http://www.w3.org/2000/svg">
<circle opacity="0.26" cx="17" cy="17" r="17" fill="url(#paint0_radial_42:14)"/>
<circle opacity="0.8" cx="17.3478" cy="17.0002" r="9.6087" stroke="#F8B043" stroke-width="1.47826"/>
<path d="M20.9113 18.3136C20.6861 18.0791 20.4145 17.9537 20.1266 17.9537C19.841 17.9537 19.5671 18.0768 19.3326 18.3113L18.599 19.0426C18.5386 19.0101 18.4782 18.9799 18.4202 18.9497C18.3366 18.9079 18.2577 18.8685 18.1904 18.8267C17.5032 18.3902 16.8786 17.8214 16.2797 17.0854C15.9895 16.7186 15.7944 16.4099 15.6528 16.0964C15.8432 15.9223 16.0196 15.7412 16.1914 15.5671C16.2564 15.5021 16.3214 15.4348 16.3864 15.3698C16.874 14.8822 16.874 14.2507 16.3864 13.7632L15.7526 13.1294C15.6807 13.0574 15.6064 12.9831 15.5367 12.9088C15.3974 12.7649 15.2512 12.6163 15.1003 12.477C14.8751 12.2541 14.6058 12.1357 14.3225 12.1357C14.0393 12.1357 13.7653 12.2541 13.5332 12.477C13.5309 12.4793 13.5309 12.4793 13.5285 12.4817L12.7392 13.278C12.442 13.5752 12.2725 13.9373 12.2354 14.3575C12.1797 15.0355 12.3793 15.6669 12.5326 16.0802C12.9087 17.0947 13.4705 18.035 14.3086 19.0426C15.3255 20.2568 16.549 21.2156 17.9466 21.8912C18.4806 22.1443 19.1933 22.4438 19.9896 22.4948C20.0384 22.4972 20.0894 22.4995 20.1359 22.4995C20.6722 22.4995 21.1226 22.3068 21.4755 21.9237C21.4778 21.9191 21.4824 21.9168 21.4847 21.9121C21.6055 21.7658 21.7448 21.6335 21.891 21.4919C21.9909 21.3967 22.093 21.2969 22.1928 21.1924C22.4227 20.9533 22.5434 20.6747 22.5434 20.3891C22.5434 20.1012 22.4204 19.825 22.1859 19.5928L20.9113 18.3136ZM21.7424 20.7583C21.7401 20.7583 21.7401 20.7606 21.7424 20.7583C21.6519 20.8558 21.559 20.944 21.4592 21.0415C21.3083 21.1854 21.1551 21.3363 21.0111 21.5058C20.7766 21.7566 20.5004 21.875 20.1382 21.875C20.1034 21.875 20.0662 21.875 20.0314 21.8726C19.3419 21.8285 18.7011 21.5592 18.2205 21.3294C16.9065 20.6933 15.7526 19.7901 14.7938 18.6456C14.0021 17.6914 13.4728 16.8092 13.1222 15.862C12.9063 15.2839 12.8274 14.8335 12.8622 14.4086C12.8854 14.137 12.9899 13.9118 13.1826 13.7191L13.9743 12.9274C14.088 12.8206 14.2088 12.7626 14.3272 12.7626C14.4734 12.7626 14.5918 12.8508 14.6661 12.9251C14.6684 12.9274 14.6708 12.9297 14.6731 12.9321C14.8147 13.0644 14.9494 13.2014 15.091 13.3476C15.163 13.4219 15.2372 13.4962 15.3115 13.5728L15.9453 14.2066C16.1914 14.4527 16.1914 14.6802 15.9453 14.9263C15.878 14.9937 15.813 15.061 15.7457 15.126C15.5507 15.3257 15.3649 15.5114 15.163 15.6925C15.1583 15.6971 15.1537 15.6994 15.1513 15.7041C14.9517 15.9037 14.9888 16.0988 15.0306 16.2311C15.0329 16.2381 15.0353 16.245 15.0376 16.252C15.2024 16.6513 15.4346 17.0274 15.7875 17.4755L15.7898 17.4778C16.4306 18.2672 17.1062 18.8824 17.8514 19.3537C17.9466 19.414 18.0441 19.4628 18.137 19.5092C18.2205 19.551 18.2995 19.5905 18.3668 19.6323C18.3761 19.6369 18.3854 19.6439 18.3947 19.6485C18.4736 19.688 18.5479 19.7066 18.6245 19.7066C18.8172 19.7066 18.9379 19.5858 18.9774 19.5464L19.7714 18.7524C19.8503 18.6734 19.9757 18.5783 20.1219 18.5783C20.2659 18.5783 20.3843 18.6688 20.4563 18.7477C20.4586 18.7501 20.4586 18.7501 20.4609 18.7524L21.7401 20.0316C21.9792 20.2684 21.9792 20.5122 21.7424 20.7583Z" stroke="url(#paint1_linear_42:14)" stroke-width="0.73913"/>
<path d="M18.1628 14.1159C18.771 14.218 19.3236 14.5059 19.7647 14.947C20.2058 15.3881 20.4914 15.9407 20.5958 16.549C20.6214 16.7022 20.7537 16.809 20.9046 16.809C20.9232 16.809 20.9394 16.8067 20.958 16.8043C21.1298 16.7765 21.2436 16.614 21.2157 16.4422C21.0903 15.7062 20.7421 15.0353 20.2104 14.5036C19.6788 13.9719 19.0078 13.6237 18.2719 13.4983C18.1001 13.4705 17.9399 13.5842 17.9097 13.7537C17.8795 13.9232 17.991 14.088 18.1628 14.1159Z" fill="url(#paint2_linear_42:14)" stroke="url(#paint3_linear_42:14)" stroke-width="0.73913"/>
<path d="M23.205 16.3523C22.9984 15.1404 22.4273 14.0377 21.5497 13.1601C20.6721 12.2825 19.5693 11.7114 18.3575 11.5048C18.188 11.4746 18.0278 11.5907 17.9976 11.7602C17.9697 11.932 18.0835 12.0921 18.2553 12.1223C19.3372 12.3057 20.3239 12.8188 21.1086 13.6012C21.8933 14.3859 22.404 15.3726 22.5875 16.4545C22.613 16.6077 22.7453 16.7145 22.8962 16.7145C22.9148 16.7145 22.9311 16.7122 22.9496 16.7099C23.1191 16.6843 23.2352 16.5218 23.205 16.3523Z" fill="url(#paint4_linear_42:14)" stroke="url(#paint5_linear_42:14)" stroke-width="0.73913"/>
<defs>
<radialGradient id="paint0_radial_42:14" cx="0" cy="0" r="1" gradientUnits="userSpaceOnUse" gradientTransform="translate(17 17) rotate(90) scale(17)">
<stop offset="0.723958" stop-color="white" stop-opacity="0"/>
<stop offset="1" stop-color="white"/>
</radialGradient>
<linearGradient id="paint1_linear_42:14" x1="12.2258" y1="12.1357" x2="22.5136" y2="22.3777" gradientUnits="userSpaceOnUse">
<stop stop-color="#FCBA2C"/>
<stop offset="1" stop-color="#FFCC63"/>
</linearGradient>
<linearGradient id="paint2_linear_42:14" x1="19.5623" y1="13.4941" x2="19.5623" y2="16.809" gradientUnits="userSpaceOnUse">
<stop stop-color="#3A79BC"/>
<stop offset="1" stop-color="#53C2E9"/>
</linearGradient>
<linearGradient id="paint3_linear_42:14" x1="17.9048" y1="13.4941" x2="21.1953" y2="16.785" gradientUnits="userSpaceOnUse">
<stop stop-color="#FCBA2C"/>
<stop offset="1" stop-color="#FFCC63"/>
</linearGradient>
<linearGradient id="paint4_linear_42:14" x1="20.6016" y1="11.5" x2="20.6016" y2="16.7145" gradientUnits="userSpaceOnUse">
<stop stop-color="#3A79BC"/>
<stop offset="1" stop-color="#53C2E9"/>
</linearGradient>
<linearGradient id="paint5_linear_42:14" x1="17.9934" y1="11.5" x2="23.1697" y2="16.6782" gradientUnits="userSpaceOnUse">
<stop stop-color="#FCBA2C"/>
<stop offset="1" stop-color="#FFCC63"/>
</linearGradient>
</defs>
</svg>
