<svg width="113" height="119" viewBox="0 0 113 119" fill="none" xmlns="http://www.w3.org/2000/svg">
<rect x="0.0502525" y="63.3257" width="81" height="79" rx="10.5" transform="rotate(-45 0.0502525 63.3257)" stroke="#F8B043" stroke-width="7"/>
<path d="M25.4681 74.9313L50.3893 99.6883L90.1231 60.195L98.5335 51.8354" stroke="#ADACAC" stroke-width="2.63" stroke-miterlimit="10" stroke-linecap="square"/>
<path d="M25.4681 74.9313L50.3893 99.6883L90.1231 60.195L98.5335 51.8354" stroke="#181818" stroke-width="2.63" stroke-miterlimit="10" stroke-linecap="square"/>
<path d="M98.5328 51.8354L90.1224 60.195L50.3886 99.6883L25.4674 74.9313L17.057 66.5584" stroke="#ADACAC" stroke-width="2.63" stroke-miterlimit="10" stroke-linecap="square"/>
<path d="M98.5328 51.8354L90.1224 60.195L50.3886 99.6883L25.4674 74.9313L17.057 66.5584" stroke="#181818" stroke-width="2.63" stroke-miterlimit="10" stroke-linecap="square"/>
<path d="M8.64691 58.2127L50.3889 99.7021L98.5331 51.8493L106.944 43.4897" stroke="#ADACAC" stroke-width="2.63" stroke-miterlimit="10" stroke-linecap="square"/>
<path d="M8.64691 58.2127L50.3889 99.7021L98.5331 51.8493L106.944 43.4897" stroke="#181818" stroke-width="2.63" stroke-miterlimit="10" stroke-linecap="square"/>
<path d="M106.944 55.9082L98.5331 64.2677L50.389 112.134L8 69.9613V66.0495" stroke="#ADACAC" stroke-width="2.63" stroke-miterlimit="10" stroke-linecap="square"/>
<path d="M106.944 55.9082L98.5331 64.2677L50.389 112.134L8 69.9613V66.0495" stroke="#181818" stroke-width="2.63" stroke-miterlimit="10" stroke-linecap="square"/>
<path d="M99.0453 35.6524L106.944 43.4894L98.5331 51.8489L50.3889 99.7018L8.64691 58.2123L65.2015 2L87.6292 24.292" stroke="#ADACAC" stroke-width="2.63" stroke-miterlimit="10" stroke-linecap="square"/>
<path d="M99.0453 35.6524L106.944 43.4894L98.5331 51.8489L50.3889 99.7018L8.64691 58.2123L65.2015 2L87.6292 24.292" stroke="#181818" stroke-width="2.63" stroke-miterlimit="10" stroke-linecap="square"/>
<path d="M99.0444 35.6523L80.5253 54.0459L78.4631 44.7621L69.1227 42.7124L87.6283 24.292" stroke="#ADACAC" stroke-width="2.63" stroke-miterlimit="10" stroke-linecap="square"/>
<path d="M99.0444 35.6523L80.5253 54.0459L78.4631 44.7621L69.1227 42.7124L87.6283 24.292" stroke="#181818" stroke-width="2.63" stroke-miterlimit="10" stroke-linecap="square"/>
</svg>
